<?xml version="1.0" encoding="UTF-8" standalone="no"?>
<!-- Generator: Adobe Illustrator 18.0.0, SVG Export Plug-In . SVG Version: 6.00 Build 0)  -->

<svg
   version="1.1"
   id="Capa_1"
   x="0px"
   y="0px"
   viewBox="0 0 299.99999 132"
   xml:space="preserve"
   sodipodi:docname="koktel.svg"
   width="300"
   height="132"
   inkscape:version="1.1 (c68e22c387, 2021-05-23)"
   inkscape:export-filename="D:\Dropbox\GitHub\web-dizajn\sc-kafe\images\koktel.png"
   inkscape:export-xdpi="43.3493"
   inkscape:export-ydpi="43.3493"
   xmlns:inkscape="http://www.inkscape.org/namespaces/inkscape"
   xmlns:sodipodi="http://sodipodi.sourceforge.net/DTD/sodipodi-0.dtd"
   xmlns="http://www.w3.org/2000/svg"
   xmlns:svg="http://www.w3.org/2000/svg"><defs
   id="defs36"><rect
     x="10.791815"
     y="154.32296"
     width="267.09743"
     height="101.44307"
     id="rect25736" /><rect
     x="-7.0146801"
     y="145.14992"
     width="419.26203"
     height="112.23488"
     id="rect22892" /><rect
     x="304.86879"
     y="179.14414"
     width="44.246443"
     height="93.349204"
     id="rect18868" /><rect
     x="22.662812"
     y="65.830074"
     width="302.71043"
     height="46.404806"
     id="rect5676" /><rect
     x="157.1979"
     y="151.09313"
     width="552.39842"
     height="60.2767"
     id="rect58590" /><rect
     x="-27.132372"
     y="-210.79765"
     width="496.73111"
     height="175.31686"
     id="rect12853" /><rect
     x="-27.132372"
     y="-210.79765"
     width="496.73111"
     height="175.31686"
     id="rect12853-8" /></defs><sodipodi:namedview
   id="namedview34"
   pagecolor="#ffffff"
   bordercolor="#666666"
   borderopacity="1.0"
   inkscape:pageshadow="2"
   inkscape:pageopacity="0.0"
   inkscape:pagecheckerboard="0"
   showgrid="false"
   height="300px"
   width="300px"
   inkscape:zoom="1.8532563"
   inkscape:cx="283.55495"
   inkscape:cy="112.50468"
   inkscape:window-width="1920"
   inkscape:window-height="1027"
   inkscape:window-x="-8"
   inkscape:window-y="-8"
   inkscape:window-maximized="1"
   inkscape:current-layer="g22181"
   showguides="true"
   inkscape:guide-bbox="true"><sodipodi:guide
     position="135.97687,3.8471894"
     orientation="0,-1"
     id="guide15410" /></sodipodi:namedview>

<g
   id="g3">
</g>
<g
   id="g5">
</g>
<g
   id="g7">
</g>
<g
   id="g9">
</g>
<g
   id="g11">
</g>
<g
   id="g13">
</g>
<g
   id="g15">
</g>
<g
   id="g17">
</g>
<g
   id="g19">
</g>
<g
   id="g21">
</g>
<g
   id="g23">
</g>
<g
   id="g25">
</g>
<g
   id="g27">
</g>
<g
   id="g29">
</g>
<g
   id="g31">
</g>
<g
   id="g22181"
   transform="translate(0,-7.0146801)"><g
     aria-label="KAFE"
     transform="matrix(1.3172917,0,0,1.3172917,141.22317,-133.3879)"
     id="text25734"
     style="font-size:40px;line-height:1.25;white-space:pre;shape-inside:url(#rect25736)"><path
       d="m 34.833984,187.70117 q 0.351563,0 0.351563,0.42969 0,0.42969 -0.292969,0.85937 -0.273437,0.42969 -0.820312,0.82032 -1.347657,0.9375 -2.871094,0.9375 -1.503906,0 -2.441406,-0.44922 -0.9375,-0.44922 -1.738282,-1.19141 -0.800781,-0.76172 -1.464843,-1.73828 -0.664063,-0.97656 -1.25,-2.03125 l -1.152344,-2.10937 q -2.011719,-3.82813 -3.398438,-4.47266 -3.964843,10.64453 -8.496093,11.81641 -0.292969,0.0781 -0.644532,0.0781 -0.371093,0 -0.6640621,-0.11719 -0.3125,-0.11718 -0.5273438,-0.3125 -0.4492187,-0.37109 -0.4492187,-0.78125 0,-0.42968 0.3125,-0.66406 3.3789066,-2.48047 6.8164066,-12.77344 1.992187,-5.99609 2.773437,-10.82031 0.214844,-1.34766 0.214844,-2.07031 -0.800781,0.0391 -1.503906,0.41015 -0.683594,0.3711 -1.171875,0.6836 -0.488282,0.3125 -0.800782,0.3125 -0.3125,0 -0.683593,-0.19531 -0.351563,-0.19532 -0.644532,-0.48829 -0.683593,-0.68359 -0.683593,-1.21093 0,-0.52735 0.3125,-0.87891 0.332031,-0.35156 0.820312,-0.60547 0.488281,-0.2539 1.074219,-0.42969 0.605469,-0.19531 1.171875,-0.29296 1.074219,-0.21485 1.855469,-0.21485 0.78125,0 1.640625,0.25391 0.859375,0.23437 1.484375,0.70312 1.367187,0.9961 1.367187,2.46094 0,3.10547 -1.875,9.84375 -0.605469,2.1875 -1.367187,4.375 4.726562,-3.65234 5.722656,-4.47266 1.015625,-0.83984 2.226562,-2.01171 1.210938,-1.17188 2.128907,-2.42188 1.992187,-2.73437 1.992187,-5.48828 0,-1.01563 -0.527344,-1.77734 -0.15625,-0.25391 -0.15625,-0.48829 0,-0.23437 0.175782,-0.42968 0.195312,-0.19532 0.46875,-0.33203 0.507812,-0.21485 1.289062,-0.21485 0.800781,0 1.425781,0.35156 0.644532,0.33204 1.074219,0.85938 0.839844,1.07422 0.839844,2.57812 0,1.48438 -0.605469,2.89063 -0.605469,1.38672 -1.621094,2.61719 -0.996093,1.23047 -2.304687,2.34375 -1.308594,1.11328 -2.714844,2.1289 l -2.851562,2.03125 q -1.40625,0.97657 -2.617188,1.95313 1.425781,1.11328 3.320313,3.88672 l 1.503906,2.24609 q 1.621094,2.48047 2.617187,3.26172 0.996094,0.76172 1.640625,0.76172 0.664063,0 1.074219,-0.19531 0.410156,-0.21485 0.644531,-0.21485 z"
       style="font-family:Courgette;-inkscape-font-specification:Courgette"
       id="path42966" /><path
       d="m 50.009766,186.13867 q 0,-2.63672 1.503906,-8.08594 -4.707031,0.11719 -7.207031,0.27344 -0.761719,1.38672 -1.386719,2.63672 l -1.210938,2.40234 q -2.402343,4.72657 -4.316406,6.23047 -1.464844,1.17188 -3.105469,1.17188 -1.25,0 -1.894531,-0.82031 -0.234375,-0.33204 -0.273437,-0.625 -0.03906,-0.3125 0.136718,-0.41016 2.246094,-0.83984 3.652344,-2.55859 1.230469,-1.54297 2.460938,-3.76954 l 2.207031,-3.94531 -1.230469,0.17578 q -1.171875,0.21485 -1.171875,-0.37109 0,-0.58594 0.703125,-1.11328 1.230469,-0.91797 2.402344,-1.21094 l 0.839844,-0.19531 q 3.203125,-5.29297 4.882812,-7.40235 1.699219,-2.10937 3.085938,-3.51562 1.40625,-1.40625 2.949218,-2.48047 3.378907,-2.32422 6.660157,-2.32422 0.996093,0 1.347656,0.41016 0.585937,0.64453 0.371094,1.38672 -0.214844,0.72265 -0.703125,2.08984 -3.125,8.51563 -3.808594,10.54688 0.3125,-0.0195 0.566406,-0.0195 h 0.429688 q 2.1875,0 2.34375,0.42969 0.03906,0.13672 0.03906,0.50781 0,0.35157 -0.234375,0.82032 -0.214844,0.46875 -0.722656,0.80078 -1.035156,0.70312 -3.476563,0.82031 -1.328125,4.58984 -1.523437,6.34766 -0.175781,1.75781 0.117187,2.38281 0.3125,0.60547 0.859375,0.60547 0.566407,0 0.917969,-0.0977 0.351563,-0.11719 0.625,-0.2539 l 0.507813,-0.23438 q 0.195312,-0.11719 0.390625,-0.11719 0.214843,0 0.351562,0.27344 0.136719,0.25391 0.136719,0.68359 0,0.42969 -0.371094,1.03516 -0.351562,0.58594 -0.9375,1.05469 -1.367187,1.09375 -3.085937,1.09375 -2.636719,0 -3.515625,-2.34375 -0.3125,-0.82031 -0.3125,-1.46485 z m -3.90625,-10.89844 q 3.476562,-0.44921 6.445312,-0.52734 0.546875,-1.67969 1.171875,-3.32031 l 1.210938,-3.125 q 0.625,-1.48438 1.230468,-2.8125 l 1.132813,-2.40235 q -4.0625,1.05469 -8.027344,7.01172 -0.839844,1.25 -1.640625,2.57813 z"
       style="font-family:Courgette;-inkscape-font-specification:Courgette"
       id="path42968" /><path
       d="m 78.759766,177.7793 q -0.566407,-0.0195 -1.191407,-0.0586 -0.605468,-0.0586 -1.445312,-0.0781 -1.835938,-0.0391 -3.984375,0.15625 -0.488281,1.67969 -1.621094,4.14062 -1.113281,2.44141 -2.207031,4.14063 -2.34375,3.63281 -4.765625,4.49219 -0.351563,0.13671 -0.722656,0.13671 -0.351563,0 -0.644532,-0.13671 -0.292968,-0.11719 -0.488281,-0.3125 -0.410156,-0.3711 -0.410156,-0.82032 0,-0.44922 0.292969,-0.66406 2.773437,-2.01172 5.703125,-10.13672 -0.214844,0.0586 -0.429688,0.11719 -0.214844,0.0586 -0.371094,0.11719 -0.15625,0.0586 -0.371093,0.0586 -0.195313,0 -0.449219,-0.11719 -0.234375,-0.13672 -0.429688,-0.3125 -0.429687,-0.39062 -0.429687,-0.76172 0,-0.37109 0.332031,-0.68359 0.351563,-0.33203 0.859375,-0.625 0.9375,-0.54687 2.363281,-1.01562 l 1.054688,-3.28125 q 1.855469,-5.76172 3.554687,-7.98829 -1.601562,-0.13671 -2.363281,-0.13671 -2.304687,0 -3.320312,0.64453 -0.996094,0.64453 -1.40625,1.40625 -0.390625,0.74218 -0.410157,1.03515 -0.05859,0.54688 -0.351562,0.70313 -0.292969,0.13672 -0.722656,0.13672 -0.410157,0 -0.859375,-0.29297 -0.449219,-0.3125 -0.742188,-0.78125 -0.625,-0.95703 -0.488281,-2.14844 0.136719,-1.21094 0.78125,-2.07031 0.664062,-0.87891 1.5625,-1.42578 1.660156,-1.01563 3.496094,-1.01563 1.855468,0 3.496093,0.19531 1.660157,0.17579 3.300782,0.41016 4.355468,0.58594 5.546875,0.58594 1.191406,0 1.757812,-0.13672 0.585938,-0.13672 0.996094,-0.41016 0.410156,-0.27343 0.566406,-0.35156 0.175781,-0.0977 0.546875,-0.0977 0.585938,0 0.507813,0.89844 -0.07813,0.87891 -0.429688,1.52344 -0.351562,0.625 -0.917969,1.03516 -1.152343,0.83984 -2.929687,0.83984 -1.777344,0 -4.316406,-0.23438 -0.644532,1.3086 -1.230469,3.4375 l -1.796875,6.44532 q 1.835937,-0.29297 2.792969,-0.29297 0.976562,0 1.601562,0.19531 0.625,0.19531 1.113281,0.54688 1.132813,0.76171 1.113282,1.875 -0.01953,1.11328 -1.09375,1.11328 z"
       style="font-family:Courgette;-inkscape-font-specification:Courgette"
       id="path42970" /><path
       d="m 101.18164,164.53711 q 0,-1.64063 -1.953124,-1.64063 -3.730469,0 -6.777344,3.45704 -1.796875,2.03125 -2.519531,4.39453 -0.351563,1.15234 -0.351563,2.03125 0,0.8789 0.195313,1.40625 0.214843,0.50781 0.527343,0.83984 0.664063,0.70313 1.542969,0.54688 0.957031,-0.39063 1.679688,-0.39063 0.742187,0 1.171875,0.19531 0.449218,0.17578 0.722656,0.44922 0.566406,0.54688 0.566406,1.05469 0,0.99609 -0.664062,1.03516 -1.015625,0.0976 -2.128907,0.5664 -1.113281,0.46875 -2.246093,1.23047 -1.132813,0.74219 -2.011719,1.67969 -2.011719,2.14844 -2.011719,4.3164 0,1.03516 0.488281,1.5625 0.820313,0.91797 1.953125,0.91797 1.132813,0 2.207032,-0.42968 1.09375,-0.44922 1.972656,-1.07422 1.328125,-0.95703 2.578125,-2.44141 0.625,-0.74219 1.09375,-0.74219 0.46875,0 0.703125,0.56641 0.253906,0.54687 0.253906,1.17187 0,1.28907 -0.488281,1.91407 -0.488281,0.60547 -1.230469,1.23047 -0.722656,0.60546 -1.738281,1.13281 -2.441406,1.25 -5.234375,1.25 -4.707031,0 -6.445313,-3.08594 -0.625,-1.15234 -0.625,-2.36328 0,-1.21094 0.351563,-2.24609 0.371094,-1.03516 0.9375,-1.91407 0.566406,-0.89843 1.269531,-1.60156 0.703125,-0.72266 1.386719,-1.25 1.347656,-1.05469 2.226562,-1.19141 -2.207031,-0.8789 -2.96875,-3.41796 -0.234375,-0.82032 -0.234375,-1.99219 0,-1.17188 0.449219,-2.57813 0.449219,-1.42578 1.269531,-2.71484 0.820313,-1.30859 1.953125,-2.44141 1.132813,-1.13281 2.5,-1.97265 2.949219,-1.79688 6.210938,-1.79688 3.417968,0 5.097658,1.69922 1.34765,1.36719 1.34765,3.49609 0,2.42188 -2.03125,4.90235 -1.23046,1.48437 -2.226558,2.01172 -0.976563,0.52734 -1.542969,0.58593 -0.546875,0.0391 -1.035156,-0.13671 -0.46875,-0.19532 -0.820313,-0.50782 -0.800781,-0.72265 -0.800781,-1.30859 0,-0.72266 0.507813,-1.11328 l 1.757812,-1.25 q 3.164062,-2.32422 3.164062,-4.04297 z"
       style="font-family:Courgette;-inkscape-font-specification:Courgette"
       id="path42972" /></g><g
     aria-label="SC"
     transform="matrix(1.8736109,0,0,1.8736109,72.478391,463.05749)"
     id="text12851"
     style="font-size:30.0166px;line-height:1.25;white-space:pre;shape-inside:url(#rect12853)"><path
       d="m -23.439364,-189.29573 -0.131909,1.12856 q 0,1.77344 1.18718,2.41833 0.410384,0.21984 0.981989,0.21984 0.571605,0 1.025958,-0.19053 0.454353,-0.20519 0.747483,-0.52764 0.615575,-0.65954 0.615575,-1.52428 0,-0.86473 -0.351757,-1.56825 -0.351757,-0.70351 -0.879392,-1.40702 l -1.172524,-1.43635 q -1.421684,-1.70015 -1.90535,-3.09253 -0.483666,-1.40702 -0.483666,-2.57955 0,-1.17252 0.278474,-2.21314 0.293131,-1.05527 0.80611,-1.99329 0.512979,-0.95267 1.231149,-1.74412 0.718171,-0.79146 1.597564,-1.36306 1.832067,-1.23115 3.634822,-1.23115 1.802755,0 2.814056,0.49832 1.011302,0.49832 1.626877,1.26046 1.14321,1.43634 1.14321,3.4736 0,1.8907 -1.069928,3.56154 -0.981988,1.52428 -2.198481,1.93467 -0.263818,0.13191 -0.732827,0.13191 -0.454353,0 -0.776797,-0.13191 -0.307787,-0.14657 -0.542292,-0.38107 -0.512979,-0.51298 -0.512979,-1.1139 0,-0.41038 0.249161,-0.54229 1.113898,-0.60092 1.934664,-1.74413 0.894049,-1.24581 0.938019,-2.47696 0.04397,-1.2458 -0.600919,-1.83206 -0.630231,-0.60092 -1.685502,-0.60092 -1.055271,0 -1.905351,0.48366 -0.850079,0.46901 -1.465654,1.27512 -1.319089,1.72947 -1.319089,4.08918 0,1.56825 1.084584,3.31238 0.454353,0.74748 0.981989,1.48031 0.542292,0.71817 1.011301,1.48031 1.069928,1.77344 1.069928,3.18047 0,1.40703 -0.512979,2.37436 -0.498323,0.96733 -1.333746,1.6855 -1.802754,1.55359 -4.103831,1.55359 -2.169169,0 -3.341692,-1.28977 -0.938019,-1.04062 -0.938019,-2.25711 0,-1.31909 0.747484,-2.22779 0.571605,-0.68886 1.09924,-0.82077 1.157867,-0.30779 1.157867,0.74748 z"
       style="font-family:Courgette;-inkscape-font-specification:Courgette"
       id="path45474" /><path
       d="m -11.464968,-189.75008 0.01466,-0.42504 q 0.161222,-4.38231 2.2131377,-8.28095 1.890694,-3.56154 4.7633764,-5.76002 2.8433693,-2.16917 5.5401732,-2.16917 2.051916,0 3.2390959,1.42169 1.0113015,1.23115 1.0113015,3.01925 0,2.13985 -1.5682501,4.22108 -0.9087056,1.20184 -1.9346636,1.72947 -0.483666,0.26382 -0.9087057,0.26382 -0.41038319,0 -0.76214022,-0.17588 -0.35175703,-0.17588 -0.6155748,-0.43969 -0.54229208,-0.57161 -0.54229208,-1.02596 0,-0.45435 0.23450468,-0.63023 2.40367302,-1.72948 3.26840902,-3.56154 0.3371005,-0.70352 0.3371005,-1.37772 0,-1.42168 -1.3484019,-1.42168 -2.11054219,0 -4.3529932,2.30107 -2.0958857,2.1252 -3.5175703,5.33499 -1.4803108,3.29772 -1.5682501,6.05315 l -0.014657,0.55695 q 0,3.29772 1.3923715,4.32368 0.4983225,0.36641 1.18718,0.36641 0.7035141,0 1.3190889,-0.17588 0.6155748,-0.17588 1.2311495,-0.48366 0.996645,-0.51298 2.55023849,-1.77345 0.46900937,-0.36641 0.77679677,0.1026 0.26381777,0.38107 0.26381777,0.87939 0,0.83543 -0.23450468,1.14321 -0.21984814,0.29313 -0.77679677,0.70352 -0.54229208,0.41038 -1.33374538,0.76214 -1.8467244,0.82076 -3.6201661,0.82076 -1.7734417,0 -2.8580258,-0.42504 -1.0845842,-0.43969 -1.8320679,-1.2458 -1.5535942,-1.70016 -1.5535942,-4.63147 z"
       style="font-family:Courgette;-inkscape-font-specification:Courgette"
       id="path45476" /></g><text
     xml:space="preserve"
     transform="translate(-21.04404,71.225982)"
     id="text5674"
     style="font-style:normal;font-weight:normal;font-size:40px;line-height:1.25;font-family:sans-serif;white-space:pre;shape-inside:url(#rect5676);fill:#000000;fill-opacity:1;stroke:none"><tspan
       x="22.662109"
       y="147.625"
       id="tspan43212"><tspan
         dx="0 16.757812 20.117188 10 10 10 10 10 10 10 10 20.117188 21.679688 16.757812"
         style="font-family:Scheherazade;-inkscape-font-specification:Scheherazade"
         id="tspan43210">SC        CAFE</tspan></tspan></text><text
     xml:space="preserve"
     transform="translate(0,7.0146801)"
     id="text18866"
     style="fill:black;fill-opacity:1;line-height:1.25;stroke:none;font-family:sans-serif;font-style:normal;font-weight:normal;font-size:40px;white-space:pre;shape-inside:url(#rect18868)" /><text
     xml:space="preserve"
     transform="translate(0,7.0146801)"
     id="text22890"
     style="fill:black;fill-opacity:1;line-height:1.25;stroke:none;font-family:sans-serif;font-style:normal;font-weight:normal;font-size:40px;white-space:pre;shape-inside:url(#rect22892)" /></g><g
   id="g15417"
   transform="matrix(0.74030841,0,0,0.74030841,31.16101,31.291749)"><ellipse
     style="opacity:1;fill:#9999c1;fill-opacity:1;stroke:none;stroke-width:3.15098;stroke-miterlimit:4;stroke-dasharray:none;stroke-opacity:1"
     id="path45601"
     ry="27.539949"
     rx="36.204308"
     cy="68.770615"
     cx="118.59448" /><path
     style="fill:#9999c1;fill-opacity:1;stroke:#000000;stroke-width:2.25777;stroke-linecap:butt;stroke-linejoin:miter;stroke-miterlimit:4;stroke-dasharray:none;stroke-opacity:1"
     d="m 107.89947,126.96312 c 8.10595,-13.08442 7.91488,-28.670066 11.47802,-43.123963 3.23096,14.529314 0.83561,30.798233 11.45639,43.042683 z"
     id="path43963"
     sodipodi:nodetypes="cccc" /><ellipse
     style="opacity:1;fill:#97e0f4;fill-opacity:1;stroke:none;stroke-width:2;stroke-miterlimit:4;stroke-dasharray:none;stroke-opacity:1"
     id="path54754"
     cx="118.02419"
     cy="56.901062"
     rx="23.720999"
     ry="8.5344725" /><path
     id="XMLID_257_"
     style="stroke-width:0.234922"
     d="m 127.77734,3.1523438 c -0.43053,-0.050304 -0.87235,0.00385 -1.28515,0.1679687 l -16.77344,6.6367187 c -1.37168,0.5427138 -2.04091,2.0889558 -1.49805,3.4589848 0.53913,1.370425 2.10927,2.036196 3.45703,1.5 L 124.7168,9.7578125 124.01172,41.039062 c -2.36943,-0.06275 -4.83622,-0.04906 -7.38477,0.06836 -6.38338,0.294094 -12.25922,1.142239 -17.054684,2.339844 l -2.716797,-6.337891 c 12.634721,-5.637822 21.870111,-11.531327 21.017581,-13.517578 -0.2958,-0.693313 -31.230472,-3.539063 -31.230472,-3.539063 0,0 -19.262773,24.364768 -18.966797,25.056641 0.852608,1.988145 11.48808,-0.637505 24.279297,-5.900391 l 2.492188,5.808594 c -3.950864,1.485582 -5.717902,3.025468 -7.017578,5.105469 v -0.0039 c -4.404798,6.589261 -7.038509,15.404296 -6.642579,23.998047 0.969044,21.033307 18.446322,37.313806 39.035161,36.365236 20.58907,-0.94858 36.49639,-18.767476 35.52734,-39.800783 -0.39593,-8.593751 -3.96335,-17.22222 -8.87891,-23.439453 -2.18783,-2.767356 -4.87624,-3.9201 -10.57422,-5.017579 l 3.41602,-20.888671 16.75586,7.792968 c 1.34876,0.618906 2.92552,0.0403 3.54492,-1.292968 0.61974,-1.33563 0.039,-2.921876 -1.29297,-3.542969 L 138.375,15.021484 c -0.7599,-0.353724 -1.63347,-0.32789 -2.37305,0.06055 -0.73599,0.390194 -1.24832,1.101515 -1.38086,1.925781 l -4,24.447266 c -0.41895,-0.04323 -0.85416,-0.07936 -1.2832,-0.117187 l 0.79688,-35.478516 c 0.0217,-0.89229 -0.40666,-1.7363478 -1.14258,-2.2480469 -0.36611,-0.2540504 -0.78431,-0.4086803 -1.21485,-0.4589843 z M 120.5,44.564453 c 1.18423,-0.0052 2.32191,0.0132 3.43164,0.04297 l -0.20898,9.273437 c -2.02239,0.226755 -4.14534,0.417717 -6.48243,0.525391 -5.11426,0.235624 -9.44492,0.05859 -13.10351,-0.314453 l -3.13477,-7.3125 c 4.06887,-0.986341 9.28086,-1.821248 15.78907,-2.121094 1.29503,-0.05967 2.52475,-0.08858 3.70898,-0.09375 z m 8.75586,0.351563 c 0.2617,0.0247 0.5341,0.0439 0.78906,0.07031 l -0.91601,5.601563 z m 6.06445,0.83789 c 4.005,0.791918 6.56643,1.814597 7.54688,2.585938 -0.99861,0.947658 -3.88917,2.378207 -8.56446,3.626953 z m -39.466794,2.542969 2.074218,4.839844 c -3.534332,-0.764443 -5.849363,-1.696728 -6.761718,-2.414063 0.686146,-0.650114 2.267981,-1.534245 4.6875,-2.425781 z" /><path
     style="mix-blend-mode:normal;fill:#97e0f4;fill-opacity:1;stroke:none;stroke-width:1.0148px;stroke-linecap:butt;stroke-linejoin:miter;stroke-opacity:1"
     d="m 88.895123,56.685694 c -1.485598,5.794265 -15.653308,45.253706 28.986577,52.110156 40.54279,-5.09924 35.68017,-41.222719 28.95752,-55.60199 -19.81113,8.137337 -39.0176,7.780951 -57.944097,3.491834 z"
     id="path36422"
     sodipodi:nodetypes="cccc" /></g><g
   aria-label="GAJBA bar"
   transform="matrix(1.0902468,0,0,1.0902468,-321.90138,-161.95935)"
   id="text58588"
   style="font-size:40px;line-height:1.05;white-space:pre;shape-inside:url(#rect58590);stroke:#c4b44a;stroke-width:2.02244"><g
     id="g22125"><path
       d="m 323.83664,161.84513 v 0.6 q -7.36,2.68 -13.04,10.24 -0.24,0.44 -0.24,1 0,1.08 0.92,2.88 2.52,3.44 6,3.28 l 0.56,-0.6 -0.08,-9.44 q 1.72,-0.36 3.48,-0.36 2.76,0 5.4,0.88 l 0.56,0.64 q -0.36,3.12 -0.32,7.8 0.08,7.92 0.08,7.8 -2.08,-0.16 -6.48,0.52 -4.76,0.76 -6.8,0.76 -6.28,0 -8.84,-5.08 -4.16,-5.2 -4.08,-8.72 0.68,-5.32 4.72,-10.04 3.76,-4.36 8.96,-6.64 z m -7.88,0.48 q 0.04,-0.16 0.04,-0.24 0,-0.04 0,-0.08 -0.04,-0.56 -0.92,-0.36 -8.24,5.48 -10.16,12.2 0.88,3.92 3.6,6.52 2.12,3.56 7.48,3.56 1.44,0 3.72,-0.24 2.88,-0.36 3.44,-0.4 l 0.08,-10.52 -0.84,0.04 0.04,9.4 q -1.56,0.76 -4.44,0.8 -2.24,-0.04 -4.48,-0.04 -2.84,-1.56 -4.8,-3.84 -2.24,-2.6 -2.68,-5.32 2.48,-6.76 9.92,-11.48 z"
       style="font-family:Tribeca;-inkscape-font-specification:Tribeca;text-align:center;text-anchor:middle"
       id="path21781" /><path
       d="m 351.83659,157.48513 q 0.6,0.36 5.76,14.4 5.2,14 5.36,15.76 h -9.8 q -1.24,-1.28 -1.84,-4.24 -1.68,0.28 -5.2,0.24 -4.6,-0.08 -4.72,-0.08 -0.4,1.24 -0.8,2.52 -0.6,1.72 -1.04,1.6 l -8.8,-0.12 q -0.08,-0.08 -0.08,-0.28 0,-1.6 4.52,-12.72 5.96,-14.76 6.8,-17.12 1.48,0.16 5.84,0.08 4,-0.04 4,-0.04 z m -3.2,4.04 q -0.52,-0.16 -1.52,-0.16 -1,-0.04 -1.52,-0.24 -3.56,8.16 -4.92,11.36 -2.68,6.36 -4.52,11.4 0.48,-0.08 0.48,0.36 v 0 q 0.04,-0.04 0.16,-0.4 1.2,-3.04 1.84,-3.72 l 16.32,-0.12 q 0.44,0.68 0.8,1.32 0.8,1.52 0.96,2.56 0.48,0.32 0.88,-0.24 -0.72,-1.92 -8.96,-22.12 z m -0.76,0.68 6.8,17 h -15.36 q 1.76,-4.96 6.8,-16.56 0.2,-0.48 0.76,-0.48 1.08,0.04 1,0.04 z m 1.68,14.52 q -0.6,-3.76 -2.72,-6.24 -0.8,1.56 -1.6,3.12 -0.92,1.88 -0.92,3.32 0.4,-0.08 0.84,-0.08 0.52,0 1.4,0.12 0.88,0.12 1.28,0.12 0.92,0 1.72,-0.36 z"
       style="font-family:Tribeca;-inkscape-font-specification:Tribeca;text-align:center;text-anchor:middle"
       id="path21783" /><path
       d="m 385.15659,157.36513 q 0.24,5.72 0.24,10.12 0,6.64 -0.6,14.36 -2.08,3 -5.2,4.56 -3.12,1.52 -6.64,1.52 -2.36,0 -4.52,-0.64 l -1.36,-0.4 q -0.36,-2.16 -0.92,-4.28 -0.56,-2.12 -1.32,-4.32 0.52,-0.24 1.2,-0.24 0.52,0 1.68,0.24 1.12,0.24 1.8,0.24 0.2,0 0.4,0 0.2,-0.04 0.4,-0.08 3.44,-0.64 4.6,-2.4 0.16,-0.84 0.2,-1.72 0.08,-0.88 0.08,-1.8 0,-2.28 -0.72,-7.4 -0.72,-4.8 -0.6,-7.64 z m -4.56,3.72 -1.28,0.24 q -0.12,1.76 -0.12,3.76 0,1.16 0.04,2.92 0.08,1.72 0.16,4 0.24,4.56 0.24,6.8 -3.32,3.6 -8,3.6 -0.52,0 -1,-0.04 -0.48,-0.04 -0.96,-0.12 v 0.88 q 0.56,0.68 2.16,0.68 0.16,0 0.48,0 0.32,-0.04 0.64,-0.04 0.36,-0.04 0.68,-0.04 0.32,0 0.48,0 1.04,-0.4 2.08,-0.8 1.08,-0.4 2.12,-0.8 2.4,-1.12 2.88,-3.28 z"
       style="font-family:Tribeca;-inkscape-font-specification:Tribeca;text-align:center;text-anchor:middle"
       id="path21785" /><path
       d="m 388.43657,157.48513 q 1.52,0.32 3.52,0.32 1.4,0 4.28,-0.2 2.92,-0.24 4.32,-0.24 6.4,0 9.04,3.96 1.12,1.24 2.28,2.48 1.24,1.52 1.24,2.84 0,0.84 -0.48,1.72 l -3.72,5.04 q 0.28,0.44 2.76,3.28 1.8,2 1.8,3.64 0,0.8 -0.4,1.68 -1.52,3.4 -4.44,4.84 -2.4,1.16 -6.16,1.16 -1.8,0 -5.52,-0.36 -3.72,-0.36 -5.52,-0.36 -1.72,0 -3.12,0.24 l -0.6,-0.88 0.4,-29.04 z m 15.6,3.84 q -3.68,-0.88 -6.76,-0.88 -2.56,0 -4.92,0.6 v 22.76 q 1.12,0 3.32,0.12 2.24,0.08 3.32,0.08 3.76,0 6.24,-0.88 1.12,-0.4 1.8,-1.4 0.72,-1 0.8,-2.16 -0.4,-3.2 -5.28,-6.96 3.32,-1 5.28,-4.52 0.12,-0.48 0.12,-0.96 0,-1.48 -1.48,-3.12 -1.2,-1.32 -2.44,-2.68 z m -10.44,0.2 q 0.68,0.12 1.56,0.12 0.76,0 2.28,-0.12 1.52,-0.12 2.24,-0.12 3.28,0 4.8,1.88 0.8,0.92 1.56,1.88 0.84,1.12 0.84,2.04 0,0.44 -0.2,0.88 -1.28,2.6 -3.92,3.84 -2.44,0.24 -4.72,0.24 -2.32,0 -4.8,-0.24 z m -0.2,11.48 q 5.6,0.12 7.28,0.48 4.2,0.96 5.6,4.36 0.48,1.2 0.48,1.88 0,0.76 -0.48,1.24 -2.24,2.16 -6.64,2.16 -1.28,0 -3.28,-0.16 -2.6,-0.24 -3.12,-0.28 z m 5.24,-8.72 q -0.48,0 -1,0.08 -0.56,2.04 -0.56,2.96 0,1.16 0.56,1.92 0.96,0.04 1.4,0.04 2.56,0 3.52,-1.6 0.16,-1.4 -0.24,-2 -0.92,-1.4 -3.68,-1.4 z m 3.92,13.8 q -1.76,-2.76 -5.12,-2.44 -0.36,0.96 -0.36,2.28 0,1.28 0.36,2.32 0.32,0.08 0.68,0.08 0.6,0 1.8,-0.36 1.08,-0.32 1.76,-0.28 1.08,-0.64 1.08,-1.08 0,-0.28 -0.2,-0.52 z"
       style="font-family:Tribeca;-inkscape-font-specification:Tribeca;text-align:center;text-anchor:middle"
       id="path21787" /><path
       d="m 437.8365,157.48513 q 0.6,0.36 5.76,14.4 5.2,14 5.36,15.76 h -9.8 q -1.24,-1.28 -1.84,-4.24 -1.68,0.28 -5.2,0.24 -4.6,-0.08 -4.72,-0.08 -0.4,1.24 -0.8,2.52 -0.6,1.72 -1.04,1.6 l -8.8,-0.12 q -0.08,-0.08 -0.08,-0.28 0,-1.6 4.52,-12.72 5.96,-14.76 6.8,-17.12 1.48,0.16 5.84,0.08 4,-0.04 4,-0.04 z m -3.2,4.04 q -0.52,-0.16 -1.52,-0.16 -1,-0.04 -1.52,-0.24 -3.56,8.16 -4.92,11.36 -2.68,6.36 -4.52,11.4 0.48,-0.08 0.48,0.36 v 0 q 0.04,-0.04 0.16,-0.4 1.2,-3.04 1.84,-3.72 l 16.32,-0.12 q 0.44,0.68 0.8,1.32 0.8,1.52 0.96,2.56 0.48,0.32 0.88,-0.24 -0.72,-1.92 -8.96,-22.12 z m -0.76,0.68 6.8,17 h -15.36 q 1.76,-4.96 6.8,-16.56 0.2,-0.48 0.76,-0.48 1.08,0.04 1,0.04 z m 1.68,14.52 q -0.6,-3.76 -2.72,-6.24 -0.8,1.56 -1.6,3.12 -0.92,1.88 -0.92,3.32 0.4,-0.08 0.84,-0.08 0.52,0 1.4,0.12 0.88,0.12 1.28,0.12 0.92,0 1.72,-0.36 z"
       style="font-family:Tribeca;-inkscape-font-specification:Tribeca;text-align:center;text-anchor:middle"
       id="path21789" /><path
       d="m 476.03644,157.48513 q 1.52,0.32 3.52,0.32 1.4,0 4.28,-0.2 2.92,-0.24 4.32,-0.24 6.4,0 9.04,3.96 1.12,1.24 2.28,2.48 1.24,1.52 1.24,2.84 0,0.84 -0.48,1.72 l -3.72,5.04 q 0.28,0.44 2.76,3.28 1.8,2 1.8,3.64 0,0.8 -0.4,1.68 -1.52,3.4 -4.44,4.84 -2.4,1.16 -6.16,1.16 -1.8,0 -5.52,-0.36 -3.72,-0.36 -5.52,-0.36 -1.72,0 -3.12,0.24 l -0.6,-0.88 0.4,-29.04 z m 15.6,3.84 q -3.68,-0.88 -6.76,-0.88 -2.56,0 -4.92,0.6 v 22.76 q 1.12,0 3.32,0.12 2.24,0.08 3.32,0.08 3.76,0 6.24,-0.88 1.12,-0.4 1.8,-1.4 0.72,-1 0.8,-2.16 -0.4,-3.2 -5.28,-6.96 3.32,-1 5.28,-4.52 0.12,-0.48 0.12,-0.96 0,-1.48 -1.48,-3.12 -1.2,-1.32 -2.44,-2.68 z m -10.44,0.2 q 0.68,0.12 1.56,0.12 0.76,0 2.28,-0.12 1.52,-0.12 2.24,-0.12 3.28,0 4.8,1.88 0.8,0.92 1.56,1.88 0.84,1.12 0.84,2.04 0,0.44 -0.2,0.88 -1.28,2.6 -3.92,3.84 -2.44,0.24 -4.72,0.24 -2.32,0 -4.8,-0.24 z m -0.2,11.48 q 5.6,0.12 7.28,0.48 4.2,0.96 5.6,4.36 0.48,1.2 0.48,1.88 0,0.76 -0.48,1.24 -2.24,2.16 -6.64,2.16 -1.28,0 -3.28,-0.16 -2.6,-0.24 -3.12,-0.28 z m 5.24,-8.72 q -0.48,0 -1,0.08 -0.56,2.04 -0.56,2.96 0,1.16 0.56,1.92 0.96,0.04 1.4,0.04 2.56,0 3.52,-1.6 0.16,-1.4 -0.24,-2 -0.92,-1.4 -3.68,-1.4 z m 3.92,13.8 q -1.76,-2.76 -5.12,-2.44 -0.36,0.96 -0.36,2.28 0,1.28 0.36,2.32 0.32,0.08 0.68,0.08 0.6,0 1.8,-0.36 1.08,-0.32 1.76,-0.28 1.08,-0.64 1.08,-1.08 0,-0.28 -0.2,-0.52 z"
       style="font-family:Tribeca;-inkscape-font-specification:Tribeca;text-align:center;text-anchor:middle"
       id="path21791" /><path
       d="m 525.43637,157.48513 q 0.6,0.36 5.76,14.4 5.2,14 5.36,15.76 h -9.8 q -1.24,-1.28 -1.84,-4.24 -1.68,0.28 -5.2,0.24 -4.6,-0.08 -4.72,-0.08 -0.4,1.24 -0.8,2.52 -0.6,1.72 -1.04,1.6 l -8.8,-0.12 q -0.08,-0.08 -0.08,-0.28 0,-1.6 4.52,-12.72 5.96,-14.76 6.8,-17.12 1.48,0.16 5.84,0.08 4,-0.04 4,-0.04 z m -3.2,4.04 q -0.52,-0.16 -1.52,-0.16 -1,-0.04 -1.52,-0.24 -3.56,8.16 -4.92,11.36 -2.68,6.36 -4.52,11.4 0.48,-0.08 0.48,0.36 v 0 q 0.04,-0.04 0.16,-0.4 1.2,-3.04 1.84,-3.72 l 16.32,-0.12 q 0.44,0.68 0.8,1.32 0.8,1.52 0.96,2.56 0.48,0.32 0.88,-0.24 -0.72,-1.92 -8.96,-22.12 z m -0.76,0.68 6.8,17 h -15.36 q 1.76,-4.96 6.8,-16.56 0.2,-0.48 0.76,-0.48 1.08,0.04 1,0.04 z m 1.68,14.52 q -0.6,-3.76 -2.72,-6.24 -0.8,1.56 -1.6,3.12 -0.92,1.88 -0.92,3.32 0.4,-0.08 0.84,-0.08 0.52,0 1.4,0.12 0.88,0.12 1.28,0.12 0.92,0 1.72,-0.36 z"
       style="font-family:Tribeca;-inkscape-font-specification:Tribeca;text-align:center;text-anchor:middle"
       id="path21793" /><path
       d="m 540.43637,158.40513 -0.4,0.24 q -0.04,1.28 -0.04,3.08 0.04,1.8 0.08,4.08 0.04,2.68 0.04,4.52 0,1.84 0,2.88 0,4.08 -0.16,7.48 -0.12,3.4 -0.4,6.24 l 0.4,0.52 h 9.36 l 0.4,-7.8 q 0.08,-0.08 0.16,-1 0.04,-0.64 0.72,-0.56 1.6,1.52 3.84,4.56 1.48,2.04 2.4,3.28 0.92,1.24 1.32,1.68 0.2,0 0.76,0.04 0.6,0.04 1.52,0.12 0.72,0.04 1.28,0.08 0.6,0 1.04,0 2.24,0 3.88,-0.6 -0.8,-2.2 -3.28,-5.6 -1.28,-1.84 -2.16,-3.2 -0.84,-1.4 -1.24,-2.32 4.28,-3.92 5.28,-5.72 0.24,-1.24 0.24,-2.48 0,-5 -3.56,-7.96 -3.08,-2.56 -8.48,-2.56 -1.04,0 -2.68,0.16 -1.64,0.12 -3.92,0.4 -2.16,0.28 -3.76,0.4 -1.6,0.08 -2.64,0.04 z m 19.72,5.96 q 0.76,1.24 0.76,2.92 0,1.48 -0.6,2.92 -1.24,3.04 -5.88,4.6 0.56,1.04 1.28,2.24 0.76,1.2 1.76,2.56 l 3.36,4.68 q -0.04,0.16 -0.32,0.16 -0.32,-0.04 -0.4,-0.04 -0.08,-0.04 0.04,-0.04 -1.64,-1.56 -3.52,-4.44 -0.8,-1.16 -1.56,-2.32 -0.76,-1.2 -1.52,-2.36 -5.44,0.2 -8.2,0.24 v 8.2 q -0.2,0.2 -0.36,0.2 -0.64,0 -0.64,-0.68 l 0.12,-22 q 3.88,-0.72 6.84,-0.72 2.12,0 4,0.36 3.12,0.6 4.84,3.52 z m -14.56,-2.44 -0.24,12.2 0.6,0.52 q 2.8,-0.08 4.56,-0.16 1.8,-0.08 2.56,-0.24 4.08,-0.8 6,-3.64 0.76,-1.12 0.76,-2.72 0,-1.28 -0.56,-2.84 -1.84,-3.52 -7.56,-3.52 0.32,0 -1.2,0.12 -1.52,0.08 -4.92,0.28 z m 10.32,4.44 q 0.16,0.36 0.16,0.88 0,2 -2.72,3.52 -0.48,0.48 -1.36,0.64 -0.84,0.16 -1.6,0.28 -0.6,-1.44 -0.6,-3.68 v -3.8 q 0.88,-0.44 1.84,-0.44 2.96,0 4.28,2.6 z"
       style="font-family:Tribeca;-inkscape-font-specification:Tribeca;text-align:center;text-anchor:middle"
       id="path21795" /></g></g></svg>
