<?xml version="1.0" encoding="UTF-8" standalone="no"?>
<!-- Created with Inkscape (http://www.inkscape.org/) -->

<svg
   width="25mm"
   height="25mm"
   viewBox="0 0 25 25"
   version="1.1"
   id="svg881"
   inkscape:version="1.1 (c68e22c387, 2021-05-23)"
   xmlns:inkscape="http://www.inkscape.org/namespaces/inkscape"
   xmlns:sodipodi="http://sodipodi.sourceforge.net/DTD/sodipodi-0.dtd"
   xmlns="http://www.w3.org/2000/svg"
   xmlns:svg="http://www.w3.org/2000/svg">
  <sodipodi:namedview
     id="namedview883"
     pagecolor="#ffffff"
     bordercolor="#666666"
     borderopacity="1.0"
     inkscape:pageshadow="2"
     inkscape:pageopacity="0.0"
     inkscape:pagecheckerboard="0"
     inkscape:document-units="mm"
     showgrid="false"
     fit-margin-top="0"
     fit-margin-left="0"
     fit-margin-right="0"
     fit-margin-bottom="0"
     inkscape:zoom="3.1072952"
     inkscape:cx="54.227227"
     inkscape:cy="-19.47031"
     inkscape:window-width="1920"
     inkscape:window-height="1027"
     inkscape:window-x="-8"
     inkscape:window-y="-8"
     inkscape:window-maximized="1"
     inkscape:current-layer="layer1" />
  <defs
     id="defs878" />
  <g
     inkscape:label="Layer 1"
     inkscape:groupmode="layer"
     id="layer1"
     transform="translate(-77.142175,-80.403554)">
    <g
       id="g15417"
       transform="matrix(0.19587326,0,0,0.19587326,67.358263,80.050991)">
      <ellipse
         style="opacity:1;fill:#9999c1;fill-opacity:1;stroke:none;stroke-width:3.15098;stroke-miterlimit:4;stroke-dasharray:none;stroke-opacity:1"
         id="path45601"
         ry="27.539949"
         rx="36.204308"
         cy="68.770615"
         cx="118.59448" />
      <path
         style="fill:#9999c1;fill-opacity:1;stroke:#000000;stroke-width:2.25777;stroke-linecap:butt;stroke-linejoin:miter;stroke-miterlimit:4;stroke-dasharray:none;stroke-opacity:1"
         d="m 107.89947,126.96312 c 8.10595,-13.08442 7.91488,-28.670066 11.47802,-43.123963 3.23096,14.529314 0.83561,30.798233 11.45639,43.042683 z"
         id="path43963"
         sodipodi:nodetypes="cccc" />
      <ellipse
         style="opacity:1;fill:#97e0f4;fill-opacity:1;stroke:none;stroke-width:2;stroke-miterlimit:4;stroke-dasharray:none;stroke-opacity:1"
         id="path54754"
         cx="118.02419"
         cy="56.901062"
         rx="23.720999"
         ry="8.5344725" />
      <path
         id="XMLID_257_"
         style="stroke-width:0.234922"
         d="m 127.77734,3.1523438 c -0.43053,-0.050304 -0.87235,0.00385 -1.28515,0.1679687 l -16.77344,6.6367187 c -1.37168,0.5427138 -2.04091,2.0889558 -1.49805,3.4589848 0.53913,1.370425 2.10927,2.036196 3.45703,1.5 L 124.7168,9.7578125 124.01172,41.039062 c -2.36943,-0.06275 -4.83622,-0.04906 -7.38477,0.06836 -6.38338,0.294094 -12.25922,1.142239 -17.054684,2.339844 l -2.716797,-6.337891 c 12.634721,-5.637822 21.870111,-11.531327 21.017581,-13.517578 -0.2958,-0.693313 -31.230472,-3.539063 -31.230472,-3.539063 0,0 -19.262773,24.364768 -18.966797,25.056641 0.852608,1.988145 11.48808,-0.637505 24.279297,-5.900391 l 2.492188,5.808594 c -3.950864,1.485582 -5.717902,3.025468 -7.017578,5.105469 v -0.0039 c -4.404798,6.589261 -7.038509,15.404296 -6.642579,23.998047 0.969044,21.033307 18.446322,37.313806 39.035161,36.365236 20.58907,-0.94858 36.49639,-18.767476 35.52734,-39.800783 -0.39593,-8.593751 -3.96335,-17.22222 -8.87891,-23.439453 -2.18783,-2.767356 -4.87624,-3.9201 -10.57422,-5.017579 l 3.41602,-20.888671 16.75586,7.792968 c 1.34876,0.618906 2.92552,0.0403 3.54492,-1.292968 0.61974,-1.33563 0.039,-2.921876 -1.29297,-3.542969 L 138.375,15.021484 c -0.7599,-0.353724 -1.63347,-0.32789 -2.37305,0.06055 -0.73599,0.390194 -1.24832,1.101515 -1.38086,1.925781 l -4,24.447266 c -0.41895,-0.04323 -0.85416,-0.07936 -1.2832,-0.117187 l 0.79688,-35.478516 c 0.0217,-0.89229 -0.40666,-1.7363478 -1.14258,-2.2480469 -0.36611,-0.2540504 -0.78431,-0.4086803 -1.21485,-0.4589843 z M 120.5,44.564453 c 1.18423,-0.0052 2.32191,0.0132 3.43164,0.04297 l -0.20898,9.273437 c -2.02239,0.226755 -4.14534,0.417717 -6.48243,0.525391 -5.11426,0.235624 -9.44492,0.05859 -13.10351,-0.314453 l -3.13477,-7.3125 c 4.06887,-0.986341 9.28086,-1.821248 15.78907,-2.121094 1.29503,-0.05967 2.52475,-0.08858 3.70898,-0.09375 z m 8.75586,0.351563 c 0.2617,0.0247 0.5341,0.0439 0.78906,0.07031 l -0.91601,5.601563 z m 6.06445,0.83789 c 4.005,0.791918 6.56643,1.814597 7.54688,2.585938 -0.99861,0.947658 -3.88917,2.378207 -8.56446,3.626953 z m -39.466794,2.542969 2.074218,4.839844 c -3.534332,-0.764443 -5.849363,-1.696728 -6.761718,-2.414063 0.686146,-0.650114 2.267981,-1.534245 4.6875,-2.425781 z" />
      <path
         style="mix-blend-mode:normal;fill:#97e0f4;fill-opacity:1;stroke:none;stroke-width:1.0148px;stroke-linecap:butt;stroke-linejoin:miter;stroke-opacity:1"
         d="m 88.895123,56.685694 c -1.485598,5.794265 -15.653308,45.253706 28.986577,52.110156 40.54279,-5.09924 35.68017,-41.222719 28.95752,-55.60199 -19.81113,8.137337 -39.0176,7.780951 -57.944097,3.491834 z"
         id="path36422"
         sodipodi:nodetypes="cccc" />
    </g>
  </g>
</svg>
