<?xml version="1.0" standalone="no"?>
<!DOCTYPE svg PUBLIC "-//W3C//DTD SVG 20010904//EN"
 "http://www.w3.org/TR/2001/REC-SVG-20010904/DTD/svg10.dtd">
<svg version="1.0" xmlns="http://www.w3.org/2000/svg"
 width="700.000000pt" height="700.000000pt" viewBox="0 0 700.000000 700.000000"
 preserveAspectRatio="xMidYMid meet">
<metadata>
Created by potrace 1.14, written by Peter Selinger 2001-2017
</metadata>
<g transform="translate(0.000000,700.000000) scale(0.100000,-0.100000)"
fill="#000000" stroke="none">
<path d="M4215 6920 c-29 -7 -120 -41 -160 -60 -11 -5 -153 -61 -315 -125
-162 -63 -304 -119 -315 -124 -11 -5 -36 -15 -55 -22 -90 -32 -140 -61 -160
-94 -34 -55 -28 -127 14 -173 43 -48 106 -64 158 -42 55 23 710 280 714 280 3
0 3 -114 -1 -252 -7 -308 -12 -517 -20 -883 -8 -372 -14 -567 -17 -570 -2 -1
-111 -5 -243 -8 -265 -7 -407 -15 -525 -32 -19 -2 -53 -7 -75 -10 -131 -17
-170 -23 -260 -39 -97 -18 -117 -22 -178 -37 -27 -6 -52 -8 -56 -3 -4 5 -29
59 -55 119 -26 61 -57 131 -68 157 -11 25 -18 52 -15 60 3 7 27 22 53 32 66
25 483 233 575 286 260 149 424 267 486 348 51 67 42 84 -47 96 -25 3 -54 8
-66 10 -19 4 -78 12 -159 21 -16 2 -55 6 -85 10 -30 4 -68 8 -85 10 -68 6
-172 17 -195 20 -14 2 -52 6 -85 10 -33 3 -78 8 -100 10 -56 6 -136 14 -197
20 -29 3 -73 7 -98 10 -25 2 -72 7 -105 10 -65 6 -146 13 -210 20 -22 2 -71 7
-110 11 -38 3 -86 7 -107 9 -36 4 -37 2 -130 -117 -51 -66 -98 -125 -103 -132
-10 -10 -339 -432 -434 -556 -147 -192 -336 -447 -371 -501 l-41 -64 22 -18
c19 -15 38 -18 109 -16 47 2 101 6 120 10 19 5 51 11 70 14 161 27 608 169
865 274 11 5 48 20 83 34 l64 26 20 -47 c11 -26 30 -67 41 -92 83 -185 81
-179 50 -191 -92 -35 -204 -101 -261 -153 -103 -95 -252 -362 -335 -602 -34
-96 -79 -270 -91 -344 -3 -19 -8 -45 -10 -57 -29 -139 -29 -520 -1 -658 3 -11
7 -37 10 -59 9 -63 53 -228 86 -322 193 -550 599 -987 1131 -1220 152 -66 422
-143 506 -144 28 0 28 -2 -4 -119 -77 -288 -197 -582 -309 -756 -18 -29 -40
-66 -49 -82 l-15 -30 697 3 c383 1 721 3 750 3 l53 1 -79 93 c-197 231 -313
462 -402 805 -12 46 -20 85 -18 87 2 1 21 5 43 8 68 10 265 66 360 104 318
126 611 340 830 608 147 181 233 325 330 560 56 133 115 366 130 510 3 28 8
68 10 90 6 52 7 310 1 355 -2 19 -8 62 -12 95 -5 33 -9 65 -9 70 -16 117 -84
351 -147 505 -89 215 -249 472 -368 590 -103 103 -203 150 -420 200 -52 12
-97 23 -101 25 -3 2 2 48 12 102 9 54 19 116 23 138 3 22 10 63 15 91 5 28 13
73 16 100 4 27 8 58 10 69 2 11 6 38 10 60 3 22 10 63 15 90 5 28 12 66 14 85
3 19 8 46 10 60 2 14 10 59 16 100 7 41 14 84 16 95 2 11 7 39 10 62 3 23 9
53 12 66 l7 25 55 -27 c51 -24 138 -65 300 -139 36 -16 110 -51 165 -77 346
-162 423 -195 458 -195 142 0 196 183 78 264 -20 14 -40 26 -43 26 -4 0 -68
29 -143 65 -76 36 -139 65 -140 65 -2 0 -69 32 -150 70 -81 39 -148 70 -150
70 -1 0 -60 27 -129 60 -70 33 -128 60 -130 60 -2 0 -57 25 -122 56 -146 69
-177 75 -234 43 -43 -24 -68 -60 -76 -108 -3 -14 -9 -51 -14 -81 -9 -55 -16
-97 -24 -147 -3 -16 -19 -113 -36 -218 -18 -104 -33 -201 -35 -215 -4 -24 -61
-373 -69 -415 -2 -11 -12 -73 -22 -137 l-19 -118 -35 0 -36 0 2 98 c1 53 5
230 9 392 4 162 8 363 10 445 2 83 6 283 10 445 15 642 15 591 -6 635 -28 61
-97 93 -164 75z"/>
</g>
</svg>
