<?xml version="1.0" encoding="UTF-8" standalone="no"?>
<!-- Created with Inkscape (http://www.inkscape.org/) -->

<svg
   width="555"
   height="220"
   viewBox="0 0 146.84375 58.208339"
   version="1.1"
   id="svg5"
   inkscape:version="1.1 (c68e22c387, 2021-05-23)"
   sodipodi:docname="dashboard.svg"
   xmlns:inkscape="http://www.inkscape.org/namespaces/inkscape"
   xmlns:sodipodi="http://sodipodi.sourceforge.net/DTD/sodipodi-0.dtd"
   xmlns="http://www.w3.org/2000/svg"
   xmlns:svg="http://www.w3.org/2000/svg">
  <sodipodi:namedview
     id="namedview7"
     pagecolor="#ffffff"
     bordercolor="#666666"
     borderopacity="1.0"
     inkscape:pageshadow="2"
     inkscape:pageopacity="0.0"
     inkscape:pagecheckerboard="0"
     inkscape:document-units="mm"
     showgrid="false"
     units="px"
     width="290px"
     inkscape:zoom="1.0207207"
     inkscape:cx="162.14034"
     inkscape:cy="30.860547"
     inkscape:window-width="1920"
     inkscape:window-height="1027"
     inkscape:window-x="1072"
     inkscape:window-y="-8"
     inkscape:window-maximized="1"
     inkscape:current-layer="layer1" />
  <defs
     id="defs2" />
  <g
     inkscape:label="Layer 1"
     inkscape:groupmode="layer"
     id="layer1">
    <path
       style="fill:none;stroke:#000000;stroke-width:4.481;stroke-linecap:butt;stroke-linejoin:miter;stroke-miterlimit:0;stroke-dasharray:8.962, 4.481;stroke-dashoffset:0;stroke-opacity:1"
       d="M 3.9425215,30.979514 C 8.1366714,28.977793 10.39092,15.183929 15.961164,12.750026 20.719893,2.0824531 120.63467,4.8619325 142.71964,4.6010027"
       id="path941"
       sodipodi:nodetypes="ccc" />
    <path
       style="fill:#000000;stroke-width:0.0344437"
       d="M 6.001516,46.301377 C 5.8642398,46.231063 5.8339445,46.155047 5.7481957,45.665734 5.6539147,45.127736 5.5421245,44.631384 5.494276,44.538317 5.4394612,44.431705 4.5644851,43.483254 4.5536432,43.518698 c -0.00484,0.01581 -0.054595,0.250273 -0.1105755,0.521025 -0.085533,0.413696 -0.1275649,0.539965 -0.2633161,0.791034 -0.2604864,0.481767 -0.8082013,1.348172 -0.8872949,1.403571 -0.186925,0.130927 -0.4734421,0.08908 -0.6252397,-0.09132 -0.1551577,-0.184393 -0.1309772,-0.255063 0.3643916,-1.064964 0.248395,-0.406113 0.473617,-0.789404 0.5004923,-0.851758 0.026874,-0.06235 0.088046,-0.279192 0.1359343,-0.481863 0.087747,-0.371359 0.496355,-2.366878 0.496355,-2.424046 0,-0.04803 -0.1968345,0.06564 -0.344167,0.19875 -0.1442378,0.13031 -0.1969147,0.291285 -0.2748859,0.840017 -0.056555,0.397995 -0.092481,0.500229 -0.1916777,0.545426 -0.1699924,0.07745 -0.3818743,0.0175 -0.4157969,-0.117664 -0.020782,-0.08281 0.1569831,-1.08811 0.2438285,-1.378895 0.045272,-0.151587 0.087439,-0.204758 0.3023811,-0.381293 0.3903111,-0.320568 1.0984412,-0.846894 1.230089,-0.914276 0.2414507,-0.123586 0.6042174,-0.03342 0.7733346,0.192218 0.044696,0.05963 0.1457227,0.271442 0.2245105,0.470698 0.078787,0.199254 0.2014638,0.470499 0.2726156,0.602764 0.1264221,0.235011 0.1410813,0.24832 0.6442572,0.58492 0.5017804,0.335666 0.5151674,0.347792 0.5257376,0.476233 0.013145,0.159704 -0.058871,0.281724 -0.1849558,0.313368 C 6.867417,42.778302 6.6288943,42.651376 6.0884416,42.283717 5.7960873,42.084834 5.6971164,41.974049 5.544435,41.674769 5.502637,41.592849 5.462644,41.531617 5.455553,41.538707 c -0.010739,0.01073 -0.2490648,1.062964 -0.2688218,1.186853 -0.00341,0.02156 0.1925821,0.26451 0.4356027,0.539883 0.5528385,0.626437 0.6959495,0.817879 0.7613435,1.018458 0.062269,0.190999 0.1636316,0.755244 0.2436984,1.356593 0.053808,0.404134 0.054073,0.446578 0.00333,0.524055 -0.073508,0.112187 -0.1619719,0.155691 -0.3576076,0.175861 -0.1104288,0.01138 -0.197586,-0.0011 -0.2715651,-0.03903 z M 4.8959545,39.85671 c -0.253169,-0.124797 -0.4151303,-0.433151 -0.3694682,-0.703424 0.027843,-0.164821 0.187672,-0.390465 0.3279503,-0.463006 0.058228,-0.03011 0.1786524,-0.0631 0.2676177,-0.07331 0.2322245,-0.02665 0.5042631,0.118967 0.6156143,0.329534 0.1376984,0.260392 0.085866,0.62 -0.1156271,0.802212 -0.1766595,0.159754 -0.5180686,0.210533 -0.726087,0.107994 z"
       id="path3912" />
    <path
       style="fill:#000000;stroke-width:0.049516"
       d="m 24.14643,45.978697 c -0.966641,-0.321123 -1.586283,-1.08719 -1.688511,-2.087513 -0.111725,-1.093266 0.67034,-2.185573 1.775457,-2.479773 0.407358,-0.108445 0.879487,-0.08908 1.304194,0.05349 0.20282,0.06808 0.378606,0.12379 0.390635,0.12379 0.03722,0 0.421688,-0.585554 0.421688,-0.642228 0,-0.02941 -0.07827,-0.208888 -0.173928,-0.398845 L 26.002036,40.202236 H 25.75682 c -0.270824,0 -0.382003,-0.09962 -0.291556,-0.261237 0.04192,-0.0749 0.13882,-0.08537 0.789612,-0.08537 0.641124,0 0.746054,0.011 0.772918,0.08101 0.05789,0.150863 -0.05503,0.240021 -0.324009,0.255816 -0.140173,0.0082 -0.25486,0.02568 -0.25486,0.03878 0,0.0131 0.05609,0.134487 0.124625,0.26975 l 0.124624,0.245934 h 1.38521 1.385209 l -0.180627,-0.365041 c -0.103514,-0.209195 -0.167423,-0.399452 -0.149698,-0.445644 0.02684,-0.06996 0.137403,-0.08046 0.837121,-0.0795 0.864089,0.0012 0.94012,0.02106 1.072732,0.280361 0.110916,0.216886 0.06826,0.458238 -0.113044,0.639536 -0.146364,0.146365 -0.200546,0.168355 -0.414823,0.168355 -0.164473,0 -0.268121,-0.02609 -0.311555,-0.07843 -0.08595,-0.103567 -0.0036,-0.238538 0.15705,-0.257291 0.257759,-0.03009 0.336248,-0.06471 0.367104,-0.161935 0.06324,-0.199251 -0.04924,-0.245088 -0.601401,-0.245088 h -0.514209 l 0.322563,0.643708 c 0.177409,0.354039 0.343599,0.643708 0.369309,0.643708 0.02572,0 0.175066,-0.03343 0.331902,-0.07428 0.773103,-0.201369 1.561613,0.0091 2.17367,0.580265 0.849982,0.79316 0.991781,2.054705 0.341131,3.034951 -0.24131,0.363548 -0.51426,0.593179 -0.963033,0.810191 -0.366381,0.177171 -0.379719,0.179583 -0.992889,0.179583 -0.620894,0 -0.621904,-1.98e-4 -1.005919,-0.189981 -1.520782,-0.751612 -1.816239,-2.711868 -0.581101,-3.855417 l 0.337418,-0.312397 -0.07612,-0.160735 c -0.04186,-0.0884 -0.08879,-0.160166 -0.104276,-0.159472 -0.01548,6.95e-4 -0.382749,0.550601 -0.816144,1.222013 -0.629038,0.974501 -0.811322,1.296368 -0.90366,1.595629 -0.141855,0.459741 -0.141903,0.449154 0.0021,0.449154 0.150305,0 0.246257,0.114837 0.204881,0.245204 -0.02943,0.09272 -0.07204,0.101408 -0.497511,0.101408 -0.395066,0 -0.472429,-0.01327 -0.512383,-0.08793 -0.06558,-0.122541 0.02126,-0.25868 0.165003,-0.25868 0.101057,0 0.130278,-0.04535 0.220362,-0.34192 0.05712,-0.188057 0.103855,-0.356285 0.103855,-0.373842 0,-0.01756 -0.12626,-0.02524 -0.280576,-0.01707 l -0.280576,0.01485 -0.0613,0.301507 c -0.143012,0.703407 -0.614634,1.303668 -1.28434,1.634654 -0.359486,0.177668 -0.405668,0.187684 -0.931646,0.202042 -0.365995,0.01 -0.620483,-0.0071 -0.751472,-0.05069 z m 1.272494,-0.382523 c 0.167094,-0.05628 0.398359,-0.167399 0.513923,-0.246909 0.414156,-0.284947 0.770086,-0.82457 0.842476,-1.277272 l 0.03255,-0.203562 -1.053029,-0.01338 c -0.902076,-0.01147 -1.06019,-0.02475 -1.102985,-0.09264 -0.03922,-0.06224 0.06864,-0.262186 0.502185,-0.930928 0.303678,-0.468415 0.55214,-0.87103 0.55214,-0.894699 0,-0.09617 -0.524975,-0.220525 -0.916046,-0.216991 -0.867501,0.0079 -1.622555,0.562438 -1.879984,1.380873 -0.12773,0.406086 -0.0901,1.040829 0.08421,1.420273 0.141943,0.308995 0.498454,0.721355 0.767323,0.887526 0.466224,0.288142 1.134447,0.363831 1.65724,0.187716 z m 6.331608,0.0237 c 0.541543,-0.158356 1.037287,-0.586996 1.273441,-1.101068 0.170291,-0.370702 0.210492,-1.0137 0.08775,-1.403503 -0.176522,-0.560589 -0.658026,-1.069926 -1.21603,-1.286323 -0.320746,-0.124387 -0.958495,-0.149055 -1.251531,-0.04841 l -0.186935,0.06421 0.479282,0.934665 c 0.409967,0.799494 0.469852,0.946025 0.414089,1.013216 -0.158529,0.191017 -0.256852,0.07793 -0.742323,-0.853781 -0.258721,-0.496535 -0.488175,-0.903186 -0.509897,-0.903667 -0.107043,-0.0023 -0.551439,0.528701 -0.693683,0.828978 -0.146573,0.309418 -0.158111,0.371714 -0.158111,0.853692 0,0.45828 0.01547,0.552911 0.130484,0.7982 0.422933,0.901992 1.442341,1.376074 2.373467,1.103798 z m -4.977228,-2.285748 c -0.05166,-0.288486 -0.289867,-0.757319 -0.509202,-1.00222 l -0.199132,-0.222342 -0.417729,0.643229 c -0.229751,0.353776 -0.434345,0.671081 -0.454654,0.705123 -0.02895,0.04852 0.141484,0.0619 0.788524,0.0619 h 0.825448 z m 0.904651,0.148548 c -0.287416,-0.623316 -1.098148,-2.142481 -1.126514,-2.110882 -0.02152,0.02398 -0.09731,0.131374 -0.168428,0.238669 l -0.129301,0.195082 0.273655,0.286898 c 0.286067,0.299912 0.531787,0.761427 0.589708,1.107599 0.05349,0.31967 0.05358,0.319771 0.324744,0.319771 0.139293,0 0.245554,-0.01671 0.236136,-0.03714 z m 1.010621,-1.188384 c 0.365293,-0.565102 0.680591,-1.055311 0.700661,-1.089354 0.02881,-0.04886 -0.230011,-0.0619 -1.228302,-0.0619 h -1.264796 l 0.55627,1.088135 c 0.30595,0.598475 0.55981,1.088683 0.564135,1.089354 0.0043,6.68e-4 0.306738,-0.461139 0.672032,-1.026241 z"
       id="path4048" />
    <path
       style="fill:#000000;stroke-width:0.0342518"
       d="m 53.004531,46.72819 c -0.544765,-0.172738 -0.919334,-0.618481 -1.014059,-1.206744 -0.09238,-0.573712 0.173995,-1.177092 0.656286,-1.486577 0.585733,-0.375864 1.304658,-0.293967 1.814608,0.206712 0.461325,0.452939 0.594331,1.10362 0.336873,1.648017 -0.194671,0.411629 -0.513114,0.69403 -0.928333,0.823261 -0.236691,0.07367 -0.657872,0.08113 -0.865375,0.01533 z m 0.735731,-0.868263 c 0.189833,-0.09537 0.274698,-0.253427 0.274698,-0.511591 0,-0.3607 -0.161611,-0.587467 -0.465824,-0.653626 -0.377877,-0.08218 -0.768947,0.214704 -0.76649,0.581889 0.0015,0.226767 0.163896,0.470228 0.393144,0.589458 0.136917,0.07121 0.416583,0.06817 0.564472,-0.0061 z m 7.995579,0.837127 c -0.251501,-0.09578 -0.366132,-0.174442 -0.558739,-0.383396 -0.235798,-0.255811 -0.352797,-0.546152 -0.372593,-0.924618 -0.02127,-0.406589 0.06184,-0.705897 0.277055,-0.997754 0.436402,-0.591823 1.21812,-0.757232 1.881641,-0.398149 0.235262,0.127319 0.524219,0.446187 0.651421,0.718853 0.09931,0.212875 0.108222,0.26105 0.109421,0.591398 0.0012,0.335433 -0.0061,0.375327 -0.10904,0.592612 -0.147324,0.311036 -0.442944,0.606302 -0.752745,0.751845 -0.205838,0.0967 -0.272855,0.11056 -0.575486,0.119015 -0.290322,0.0081 -0.374279,-0.0025 -0.550935,-0.06981 z m 0.73139,-0.795894 c 0.39798,-0.166287 0.52663,-0.630913 0.273229,-0.986783 -0.197975,-0.27803 -0.707456,-0.296859 -0.968522,-0.03579 -0.105548,0.105548 -0.203197,0.368205 -0.172931,0.465151 0.0078,0.0249 0.02335,0.08739 0.03462,0.138847 0.04624,0.211261 0.380972,0.469019 0.611435,0.470838 0.05241,4.15e-4 0.152388,-0.0231 0.22217,-0.05226 z M 51.189184,45.080878 c -0.287785,-0.101336 -0.434856,-0.43268 -0.36332,-0.818546 0.0494,-0.266459 0.171714,-0.527105 0.32912,-0.701335 l 0.127801,-0.14146 h -0.15474 -0.15474 l -0.02545,-0.402459 c -0.02991,-0.472933 0.0095,-4.148471 0.04751,-4.435158 0.03044,-0.229368 0.156097,-0.430157 0.372506,-0.595217 0.136449,-0.104073 0.16187,-0.110111 0.58141,-0.138086 0.241297,-0.01609 2.558054,-0.02925 5.148348,-0.02925 4.366507,0 4.744383,0.0046 5.18669,0.06266 0.551619,0.07245 0.698601,0.122189 0.841269,0.284679 0.152455,0.173636 0.220681,0.354069 0.54861,1.450882 0.342943,1.147028 0.618873,1.992957 0.706898,2.16717 0.05186,0.102642 0.143702,0.207348 0.246891,0.281482 0.09037,0.06493 0.184508,0.160924 0.209195,0.213333 0.0294,0.06241 0.05215,0.323761 0.06594,0.757411 0.01915,0.602148 0.02707,0.666525 0.08754,0.710725 0.03657,0.02673 0.109181,0.0486 0.161362,0.0486 0.192102,0 0.28916,0.206368 0.281913,0.599407 -0.0082,0.444707 -0.132743,0.659218 -0.409059,0.704563 -0.230246,0.03778 -0.746037,0.03874 -0.843823,0.0016 -0.05508,-0.02094 -0.09931,-0.087 -0.143328,-0.214074 -0.149749,-0.432315 -0.481519,-0.861523 -0.860394,-1.113082 -0.38425,-0.255128 -0.957736,-0.373697 -1.393973,-0.288208 -0.331286,0.06492 -0.566097,0.192464 -0.817872,0.444239 -0.246356,0.246356 -0.37025,0.470222 -0.461685,0.834226 -0.09762,0.388629 0.150463,0.348366 -2.23027,0.361964 -1.145966,0.0065 -2.285643,0.0012 -2.532617,-0.01182 l -0.449043,-0.02372 -0.127899,-0.347829 c -0.147061,-0.399938 -0.409692,-0.956431 -0.566695,-1.200776 l -0.10789,-0.16791 -1.078922,0.01933 c -0.942145,0.01688 -1.086932,0.02658 -1.142113,0.07652 -0.138749,0.125567 -0.450982,0.818325 -0.582128,1.29158 -0.103239,0.372551 -0.188533,0.427222 -0.497034,0.318592 z m 4.551994,-3.521271 c 0.05428,-0.03969 0.06287,-0.127115 0.07821,-0.796355 0.01691,-0.737282 -0.02388,-1.739907 -0.07278,-1.788815 -0.01362,-0.01362 -0.381835,-0.02476 -0.818263,-0.02476 -0.856467,0 -0.932922,0.01302 -1.04004,0.177166 -0.05636,0.08636 -0.06133,0.18628 -0.05713,1.148149 0.0045,1.0409 0.0204,1.29495 0.08085,1.29495 0.05097,0 0.233928,-0.212487 0.316009,-0.367017 l 0.07669,-0.14438 -0.106794,-0.112509 c -0.15862,-0.167108 -0.217218,-0.30834 -0.217218,-0.523531 0,-0.396439 0.250344,-0.66791 0.615932,-0.66791 0.30655,0 0.53742,0.138806 0.655152,0.393896 0.165653,0.358922 -0.0376,0.804005 -0.432357,0.946749 -0.114276,0.04132 -0.123143,0.05392 -0.104627,0.148607 0.03239,0.165627 0.131685,0.270987 0.296664,0.314775 0.210752,0.05594 0.653737,0.05654 0.729706,9.87e-4 z m 7.71057,-0.05817 c 0.0745,-0.06968 0.08856,-0.107965 0.07551,-0.205511 -0.01923,-0.143758 -0.608925,-1.777784 -0.750349,-2.079206 -0.16711,-0.356169 -0.369568,-0.459113 -0.797725,-0.405618 -0.227314,0.0284 -0.320209,0.09757 -0.358369,0.266854 -0.0159,0.07055 -0.01709,0.566223 -0.0026,1.101485 0.03848,1.424634 0.04085,1.427375 1.222421,1.413658 0.503009,-0.0058 0.522504,-0.0088 0.611137,-0.09166 z m -6.529453,0.02518 c 0.09184,-0.04764 0.200206,-0.292773 0.216238,-0.489141 0.0095,-0.115872 5.65e-4,-0.131526 -0.09229,-0.162414 -0.301096,-0.10016 -0.442071,-0.325838 -0.422284,-0.676013 0.01662,-0.29417 0.125158,-0.470792 0.358816,-0.583904 0.420922,-0.203765 0.844279,0.01523 0.94345,0.48803 0.03466,0.16523 0.0318,0.213053 -0.02097,0.351244 -0.0336,0.08798 -0.11463,0.211965 -0.180063,0.275513 -0.136583,0.132648 -0.133426,0.14769 0.09364,0.446193 0.07168,0.09424 0.146438,0.213692 0.166117,0.265452 0.04029,0.105969 0.154123,0.128065 0.189175,0.03672 0.03994,-0.104093 0.09016,-1.664315 0.06682,-2.076227 -0.01918,-0.33847 -0.03282,-0.409211 -0.0842,-0.436711 -0.07284,-0.03898 -1.244825,-0.04044 -1.479394,-0.0018 -0.194398,0.03199 -0.321251,0.139058 -0.36647,0.30932 -0.04408,0.16599 -0.08557,1.64092 -0.05433,1.931949 0.03359,0.313002 0.08669,0.365318 0.370114,0.364649 0.11774,-2.74e-4 0.250775,-0.01954 0.295633,-0.04281 z m 2.059121,-0.282073 c 0.0593,-0.150708 0.156781,-0.325182 0.216632,-0.38772 l 0.108819,-0.113705 -0.09459,-0.06927 c -0.156419,-0.114538 -0.265049,-0.335052 -0.265049,-0.53804 0,-0.232598 0.06086,-0.369993 0.232483,-0.524858 0.313075,-0.282502 0.765976,-0.202826 1.029235,0.181066 0.0686,0.10004 0.07824,0.1495 0.06747,0.346426 -0.01587,0.29026 -0.137595,0.484641 -0.37839,0.604259 l -0.161934,0.08044 0.08254,0.142194 c 0.0454,0.07821 0.0933,0.203847 0.106452,0.279201 0.03893,0.223065 0.126788,0.291141 0.375752,0.291141 0.27542,0 0.322617,-0.05012 0.361259,-0.383645 0.0436,-0.376271 0.03917,-1.914619 -0.0059,-2.043847 -0.02082,-0.05972 -0.06605,-0.123677 -0.100504,-0.142118 -0.03566,-0.01908 -0.402192,-0.03353 -0.850783,-0.03353 -0.78383,0 -0.788659,4.52e-4 -0.884237,0.08269 l -0.0961,0.08269 v 1.179389 c 0,0.963607 0.0088,1.190013 0.04821,1.237458 0.06347,0.07644 0.08132,0.05331 0.208616,-0.270227 z m -5.606663,0.119882 c 0.0372,-0.140866 0.0058,-2.116535 -0.03649,-2.294873 l -0.02842,-0.119881 h -0.734937 c -0.404215,0 -0.792853,0.01228 -0.86364,0.02729 -0.237343,0.05033 -0.286089,0.224044 -0.33354,1.188651 -0.03104,0.63096 -0.01485,1.188118 0.03695,1.271936 0.04707,0.07616 0.157736,-0.06087 0.255257,-0.316084 0.05378,-0.14074 0.129442,-0.268368 0.188615,-0.318159 l 0.09881,-0.08314 -0.149419,-0.149419 c -0.165477,-0.165476 -0.243633,-0.375024 -0.206466,-0.553567 0.03261,-0.156635 0.164591,-0.370816 0.281537,-0.456869 0.504007,-0.370868 1.231474,0.108927 1.07066,0.706145 -0.04494,0.166883 -0.230843,0.386531 -0.379144,0.447959 -0.103468,0.04286 -0.103614,0.04331 -0.03766,0.115321 0.03642,0.03976 0.106269,0.152352 0.155227,0.2502 0.116899,0.23364 0.381925,0.425621 0.567348,0.410981 0.0645,-0.0051 0.0909,-0.03406 0.115313,-0.126486 z"
       id="path4185" />
    <path
       style="fill:#000000;stroke-width:0.0930578"
       d="m 86.495469,46.927888 c -0.827864,-0.42596 -1.081243,-1.524448 -0.521043,-2.258905 0.330696,-0.433566 0.689518,-0.608701 1.247122,-0.608701 0.847732,0 1.507304,0.671889 1.507304,1.535451 0,1.173935 -1.176735,1.875829 -2.233383,1.332155 z m 1.057612,-0.92015 c 0.300603,-0.236453 0.317359,-0.570167 0.04153,-0.827139 -0.241307,-0.224811 -0.428882,-0.239124 -0.69461,-0.05301 -0.368052,0.257794 -0.321407,0.814294 0.08183,0.976242 0.296323,0.119009 0.298179,0.118696 0.571249,-0.0961 z m 12.812879,0.91654 c -0.466509,-0.249873 -0.842429,-0.840445 -0.842429,-1.323463 0,-0.420358 0.36803,-1.086561 0.734959,-1.330402 0.43663,-0.290165 1.16702,-0.289496 1.59877,0.0015 0.49945,0.336577 0.73717,0.763499 0.73717,1.323855 0,1.17544 -1.18991,1.884826 -2.22847,1.328545 z m 1.05271,-0.91654 c 0.29466,-0.231779 0.31879,-0.571055 0.0591,-0.830764 -0.36968,-0.369676 -0.93058,-0.115883 -0.93058,0.421065 0,0.250616 0.0539,0.34668 0.25591,0.456285 0.33084,0.179485 0.3279,0.179709 0.61559,-0.04659 z m -17.081972,0.0366 c -0.500009,-0.131712 -0.127083,-3.280179 0.479931,-4.051871 0.193865,-0.246458 2.607998,-1.490809 3.645357,-1.878978 0.948809,-0.355033 2.032847,-0.469768 4.454457,-0.471459 2.573846,-0.0018 2.444567,-0.03348 5.490408,1.345718 1.12986,0.511623 2.353419,0.984083 3.242449,1.252029 2.57547,0.776226 2.78539,0.980578 2.94029,2.862309 0.0692,0.839742 0.007,0.912415 -0.77928,0.912415 -0.46001,0 -0.47142,-0.0067 -0.47142,-0.274593 0,-0.151026 -0.047,-0.493927 -0.10453,-0.762003 -0.0847,-0.394848 -0.19513,-0.577459 -0.58161,-0.961574 -0.95042,-0.944623 -2.32915,-0.951205 -3.237939,-0.01546 -0.37647,0.387637 -0.54268,0.858036 -0.54268,1.53587 v 0.477757 h -4.686598 -4.686595 l -0.06096,-0.518704 c -0.07633,-0.649448 -0.319276,-1.132939 -0.766664,-1.525752 -0.445161,-0.390855 -0.858178,-0.561291 -1.358598,-0.560638 -0.615278,8.44e-4 -1.074718,0.166477 -1.481971,0.534406 -0.485252,0.438396 -0.720072,0.913907 -0.792229,1.604253 -0.05536,0.529722 -0.07139,0.558918 -0.301129,0.548697 -0.133459,-0.0059 -0.313768,-0.02953 -0.400685,-0.05242 z m 15.047253,-3.657429 c 0,-0.325915 -2.595921,-1.596982 -3.861896,-1.890937 -0.332679,-0.07725 -0.866598,-0.164691 -1.186481,-0.19432 l -0.581611,-0.05387 v 1.025128 c 0,0.736981 0.03272,1.036238 0.116323,1.064657 0.146527,0.0498 4.204735,0.211693 4.955315,0.19769 0.42661,-0.0079 0.55835,-0.04296 0.55835,-0.148349 z m -6.28139,-1.124571 v -1.029857 l -1.00037,0.05914 c -1.553686,0.09187 -1.912434,0.184375 -2.275522,0.586792 -0.438581,0.486085 -0.764476,1.040192 -0.667593,1.135083 0.07719,0.0756 2.099684,0.234965 3.361873,0.264899 l 0.581612,0.01379 z"
       id="path4343" />
    <path
       style="fill:#000000;stroke-width:0.0688004"
       d="m 80.317432,46.765912 c 1.034712,-0.369764 1.539167,-1.552969 1.095934,-2.570525 -0.162075,-0.372085 -0.558815,-0.789412 -0.883933,-0.929799 -0.102029,-0.04406 -0.259343,-0.135518 -0.349587,-0.203244 -0.182768,-0.137167 -0.599152,-0.161022 -0.967359,-0.05542 -0.268346,0.07696 -0.419692,-0.01635 -0.603699,-0.372172 -0.09148,-0.176895 -0.09188,-0.210616 -0.0033,-0.275397 0.197152,-0.14416 0.322146,-1.170455 0.167875,-1.378367 -0.08318,-0.112107 -0.118125,-0.120105 -0.206021,-0.04716 -0.08853,0.07346 -0.118858,0.06354 -0.185337,-0.06068 -0.05373,-0.100412 -0.123254,-0.137082 -0.214587,-0.113197 -0.09355,0.02446 -0.200496,-0.03654 -0.347724,-0.198333 -0.116944,-0.128513 -0.270221,-0.251941 -0.340615,-0.274283 -0.07039,-0.02234 -0.127989,-0.08166 -0.127989,-0.131826 0,-0.242643 -0.50365,-0.22849 -1.074149,0.03019 -0.456807,0.207127 -0.564822,0.391917 -0.215021,0.367855 0.122655,-0.0085 0.18568,0.02875 0.210667,0.124306 0.03465,0.132518 0.0454,0.131407 0.382791,-0.03956 0.190924,-0.09675 0.389704,-0.175907 0.441732,-0.175907 0.05203,0 0.132378,0.126097 0.178553,0.280215 0.123119,0.410934 0.04069,0.477209 -0.533614,0.42906 -0.411016,-0.03446 -0.503122,-0.01783 -0.836101,0.150899 -0.20581,0.104291 -0.571291,0.386712 -0.81218,0.627601 -0.415013,0.415014 -0.445679,0.432585 -0.584848,0.335108 -0.186081,-0.130336 -0.386024,-0.129406 -1.03505,0.0048 -0.481157,0.0995 -0.539264,0.09888 -0.76491,-0.0082 -0.141274,-0.06704 -0.260837,-0.182179 -0.283677,-0.273187 -0.02172,-0.08652 -0.106521,-0.175289 -0.188457,-0.197268 -0.305493,-0.08195 -1.403415,-0.0425 -1.646741,0.05917 -0.239256,0.09997 -0.242613,0.09896 -0.323765,-0.09696 -0.06353,-0.15336 -0.06346,-0.232625 2.85e-4,-0.351735 0.09414,-0.1759 0.05121,-0.640555 -0.07301,-0.790229 -0.108274,-0.130462 -0.370149,-0.128896 -0.479505,0.0029 -0.108509,0.130745 -0.0602,0.376609 0.203279,1.034621 0.279724,0.698577 0.259486,0.739103 -0.373919,0.748783 -0.326502,0.005 -0.349375,0.01791 -0.481603,0.272227 -0.103194,0.198469 -0.116751,0.27498 -0.05282,0.298134 0.12814,0.04641 0.104003,0.142296 -0.04797,0.190527 -0.141673,0.04496 -0.450353,0.750635 -0.378913,0.866227 0.07231,0.117003 0.227839,0.06558 0.27542,-0.09107 0.16744,-0.551228 0.819662,-0.937124 1.682264,-0.995333 0.542597,-0.03661 1.285239,0.06599 1.407225,0.194431 0.05222,0.05498 0.0059,0.05963 -0.168817,0.01694 -0.132441,-0.03237 -0.457523,-0.05795 -0.722405,-0.05684 -0.401943,0.0016 -0.543502,0.03581 -0.85583,0.206401 -0.383496,0.20946 -0.724111,0.604966 -0.876148,1.017341 -0.117001,0.317345 -0.1082,0.935969 0.01862,1.30814 0.128128,0.37604 0.56213,0.850299 0.95656,1.045291 0.396844,0.196185 1.27,0.188363 1.654305,-0.01482 0.311331,-0.164603 0.816424,-0.679584 0.888134,-0.905522 0.05558,-0.175111 0.103775,-0.177203 0.863185,-0.0375 0.81494,0.149922 2.170779,0.156921 2.442418,0.01261 0.411467,-0.218599 0.786533,-0.81911 0.789694,-1.264365 0.0018,-0.251051 0.181156,-0.794408 0.465305,-1.4095 0.112236,-0.242926 0.238889,-0.526825 0.281464,-0.630886 0.04257,-0.104061 0.128753,-0.189201 0.191505,-0.189201 0.123029,0 0.122669,0.01123 -0.04983,1.548011 -0.03823,0.340562 -0.08638,0.769988 -0.107009,0.95428 -0.02063,0.184292 -0.005,0.401014 0.0348,0.481604 0.03977,0.08059 0.140206,0.310235 0.223187,0.510322 0.357166,0.861211 1.451799,1.338343 2.341222,1.020497 z m -1.012103,-0.488 c -0.567554,-0.168545 -0.992911,-0.737727 -0.989507,-1.324085 0.0018,-0.302854 0.193139,-0.756284 0.394913,-0.93565 0.138084,-0.122749 0.143837,-0.119697 0.314789,0.166976 0.163794,0.274671 0.167913,0.304043 0.06937,0.494596 -0.231766,0.448185 0.09555,0.973946 0.606341,0.973946 0.227081,0 0.315094,-0.0411 0.477725,-0.223123 0.222414,-0.248925 0.250161,-0.473553 0.09545,-0.772734 -0.118267,-0.2287 -0.294979,-0.342625 -0.53146,-0.342625 -0.124957,0 -0.197998,-0.07241 -0.314125,-0.311443 -0.08322,-0.171292 -0.151311,-0.329589 -0.151311,-0.351767 0,-0.02217 0.214976,-0.02818 0.477726,-0.01332 0.405938,0.02294 0.517077,0.0583 0.739605,0.235354 0.52193,0.415262 0.700657,1.078995 0.443171,1.645784 -0.14784,0.32543 -0.553847,0.702822 -0.818958,0.761239 -0.103366,0.02278 -0.218899,0.05174 -0.25674,0.06437 -0.131209,0.04377 -0.217532,0.03331 -0.556993,-0.0675 z M 70.457841,46.16416 c -0.514013,-0.258334 -0.826788,-0.940466 -0.680439,-1.483968 0.179291,-0.665831 0.663507,-1.049937 1.325998,-1.051852 0.215348,-6.25e-4 0.408286,0.02596 0.428751,0.05907 0.02046,0.03311 -0.04993,0.180173 -0.156418,0.326802 -0.208362,0.286883 -0.635252,0.466914 -1.009497,0.425733 -0.178423,-0.01962 -0.203752,0.0058 -0.286926,0.288067 -0.11392,0.386621 -0.08742,0.456095 0.197893,0.51876 0.125535,0.02757 0.267044,0.105522 0.314465,0.173224 0.148836,0.212495 0.517926,0.293738 0.799662,0.176021 0.301384,-0.125926 0.832885,-0.210155 0.933546,-0.147943 0.116406,0.07194 -0.129144,0.440773 -0.425219,0.638705 -0.463989,0.310186 -0.92894,0.335138 -1.441816,0.07738 z m 8.92678,-0.969849 c -0.05891,-0.0841 -0.107103,-0.192461 -0.107103,-0.240802 0,-0.135437 0.123213,-0.104012 0.169984,0.04336 0.04835,0.152345 0.198314,0.225517 0.34602,0.168837 0.120834,-0.04637 0.134199,-0.251207 0.0292,-0.447414 -0.06668,-0.124598 -0.06033,-0.130966 0.06414,-0.06435 0.198222,0.106087 0.247345,0.326008 0.117187,0.524653 -0.145041,0.22136 -0.469619,0.229598 -0.619423,0.01572 z m -7.090494,-0.441469 c -0.09142,-0.03508 -0.09603,-0.05574 -0.02283,-0.102147 0.135615,-0.08597 0.19497,-0.0729 0.19497,0.04292 0,0.116507 -0.01206,0.120656 -0.172143,0.05922 z m -0.584321,-0.420429 c 2.07e-4,-0.02839 0.07328,-0.142758 0.162425,-0.254171 l 0.162084,-0.202571 0.08396,0.156862 c 0.04617,0.08627 0.07371,0.163608 0.06117,0.171853 -0.06182,0.04068 -0.373162,0.17089 -0.418378,0.174971 -0.02838,0.0026 -0.05144,-0.01856 -0.05126,-0.04695 z m 6.327082,-1.249358 c 0.04694,-0.325081 0.09093,-0.617488 0.09776,-0.649795 0.01892,-0.08951 0.386062,0.612033 0.386062,0.737698 0,0.138322 -0.506541,0.676894 -0.542587,0.576898 -0.01462,-0.04056 0.01182,-0.339721 0.05876,-0.664801 z m -0.41453,-1.502662 c -0.152668,-0.304576 -0.155258,-0.313874 -0.07329,-0.263215 0.107171,0.06624 0.301491,0.452417 0.227648,0.452417 -0.03274,0 -0.1022,-0.08514 -0.154361,-0.189202 z m 0.123389,-0.550403 c -0.09596,-0.141902 -0.19673,-0.335403 -0.223929,-0.430003 l -0.04946,-0.172002 0.214573,0.202074 c 0.118015,0.11114 0.214572,0.256373 0.214572,0.322742 0,0.06637 0.03096,0.139803 0.0688,0.163189 0.03784,0.02339 0.0688,0.07166 0.0688,0.107261 0,0.137158 -0.126085,0.05409 -0.293363,-0.193261 z"
       id="path4500" />
    <path
       style="fill:#000000;stroke-width:0.105735"
       d="m 145.07943,46.544935 v -0.689123 h -0.79302 -0.79302 v -0.422941 -0.422942 h -1.1631 -1.16308 v 0.422942 0.422941 h -1.74463 -1.74463 v -0.422941 -0.422942 h -6.39698 -6.39698 v 0.412512 0.41251 l 1.24238,0.06703 c 4.04794,0.218399 5.92209,0.474872 7.18752,0.983585 l 0.7162,0.287919 5.52467,0.03028 5.52467,0.03028 z m -1.40492,-2.235679 c 0.41717,-0.206085 0.80244,-0.698623 1.16368,-1.487659 l 0.27433,-0.599229 -0.0684,-3.073532 c -0.0604,-2.714311 -0.0981,-3.203292 -0.3226,-4.183754 -0.3454,-1.508254 -1.18319,-4.037955 -1.44935,-4.376316 l -0.21711,-0.276035 h -3.43294 c -3.19862,0 -3.4606,0.01412 -3.83837,0.206834 -0.54231,0.276665 -0.90319,0.726819 -1.12426,1.402348 -0.30498,0.931911 -1.05396,2.455881 -1.68902,3.436667 -0.80017,1.235743 -2.55315,2.954412 -3.8002,3.725811 -0.99614,0.61619 -2.81779,1.399502 -3.73365,1.605476 l -0.55753,0.125389 0.0288,1.806565 0.0288,1.806565 9.19896,0.02434 c 8.22007,0.02176 9.23512,0.0065 9.53869,-0.143475 z M 125.20119,41.95492 c 0,-0.854414 0.0546,-0.962929 0.48445,-0.962929 0.20197,0 0.21893,1.646318 0.0178,1.727472 -0.44926,0.181279 -0.50225,0.100621 -0.50225,-0.764543 z m 1.05735,-0.21976 v -0.842858 l 0.34365,-0.09324 c 0.189,-0.05129 0.37932,-0.07362 0.42294,-0.04965 0.0981,0.0539 0.10607,1.660807 0.009,1.758114 -0.0388,0.03876 -0.22908,0.07048 -0.42293,0.07048 h -0.35245 v -0.842859 z m 1.26884,-0.303492 v -0.93488 l 0.40876,-0.122472 c 0.22483,-0.06736 0.43894,-0.122472 0.47581,-0.122472 0.0369,0 0.0671,0.448529 0.0671,0.996732 0,1.081664 0.003,1.077732 -0.66085,1.105708 l -0.29078,0.01226 z m 1.37454,-0.417651 v -1.035325 l 0.58389,-0.286366 c 0.32114,-0.1575 0.60824,-0.286364 0.63799,-0.286364 0.0298,0 0.0406,0.511494 0.024,1.136654 l -0.0299,1.136654 -0.52868,0.180409 c -0.29077,0.09922 -0.56436,0.18249 -0.60797,0.185036 -0.0436,0.0025 -0.0793,-0.461269 -0.0793,-1.030698 z m 1.7975,-0.854782 0.0529,-1.256155 0.54422,-0.488707 c 0.29931,-0.268787 0.5729,-0.488704 0.60797,-0.488704 0.0351,0 0.0637,0.637749 0.0637,1.41722 v 1.41722 l -0.55512,0.321463 c -0.3053,0.176805 -0.60269,0.324244 -0.66084,0.32764 -0.0677,0.004 -0.0868,-0.445809 -0.0529,-1.249977 z m 11.99772,0.267374 c -0.0855,-0.122 -0.15537,-0.421892 -0.15537,-0.666426 0,-0.354378 0.0566,-0.489081 0.2786,-0.663752 0.15322,-0.12053 0.34722,-0.219145 0.43107,-0.219145 0.24222,0 0.77078,0.593919 0.76907,0.864183 -0.006,0.831103 -0.89756,1.293067 -1.32337,0.68514 z m -6.21052,0.06314 c -0.60348,-0.669655 -0.0618,-1.802254 0.71987,-1.505076 0.54306,0.206472 0.66332,1.206842 0.1873,1.557942 -0.25689,0.189476 -0.7127,0.162911 -0.90717,-0.05287 z m -3.88396,-1.729084 v -1.596916 l 0.64941,-0.755693 c 0.35717,-0.415631 0.69364,-0.772688 0.7477,-0.793459 0.0942,-0.03615 0.0442,1.943157 -0.0869,3.443603 l -0.0574,0.656722 -0.54714,0.318997 c -0.30092,0.175447 -0.58281,0.320046 -0.62644,0.321329 -0.0436,0.0013 -0.0793,-0.716279 -0.0793,-1.594583 z m 2.79578,-3.941243 c -0.0759,-0.302488 0.50914,-2.607904 0.77921,-3.070414 l 0.19037,-0.326056 3.29383,-0.02794 c 3.28988,-0.02791 3.29396,-0.02766 3.41719,0.202587 0.0679,0.126787 0.3078,0.779471 0.5332,1.450408 0.3873,1.152834 0.49859,1.79307 0.33934,1.952315 -0.0388,0.03876 -1.9649,0.07048 -4.28027,0.07048 h -4.20976 z"
       id="path4640" />
    <g
       aria-label="5    15     30 40  50       200"
       id="text22504"
       style="font-size:10.5833px;line-height:1.25;stroke-width:0.264583">
      <path
         d="m 1.6604701,49.570641 h 4.0979281 v 0.878497 H 2.6164811 v 1.891351 q 0.2273756,-0.07751 0.4547512,-0.113688 0.2273755,-0.04134 0.4547511,-0.04134 1.2919067,0 2.0463802,0.707965 0.7544735,0.707965 0.7544735,1.91719 0,1.245398 -0.775144,1.93786 -0.775144,0.687294 -2.1859061,0.687294 -0.4857569,0 -0.9921844,-0.08268 -0.5012598,-0.08268 -1.0386929,-0.248046 v -1.049028 q 0.4650864,0.253213 0.9611785,0.377236 0.4960922,0.124023 1.0490283,0.124023 0.8939994,0 1.4159297,-0.470254 0.5219303,-0.470254 0.5219303,-1.276403 0,-0.80615 -0.5219303,-1.276404 -0.5219303,-0.470254 -1.4159297,-0.470254 -0.4185778,0 -0.8371556,0.09302 -0.4134101,0.09302 -0.8474908,0.289387 z"
         id="path46997" />
      <path
         d="m 22.02092,56.407411 h 1.705317 v -5.885927 l -1.855178,0.372069 V 49.94271 l 1.844843,-0.372069 h 1.043861 v 6.83677 h 1.705316 v 0.878497 H 22.02092 Z"
         id="path46999" />
      <path
         d="m 28.583806,49.570641 h 4.097928 v 0.878497 h -3.141917 v 1.891351 q 0.227376,-0.07751 0.454751,-0.113688 0.227376,-0.04134 0.454751,-0.04134 1.291907,0 2.046381,0.707965 0.754473,0.707965 0.754473,1.91719 0,1.245398 -0.775144,1.93786 -0.775144,0.687294 -2.185906,0.687294 -0.485757,0 -0.992184,-0.08268 -0.50126,-0.08268 -1.038693,-0.248046 v -1.049028 q 0.465086,0.253213 0.961178,0.377236 0.496092,0.124023 1.049029,0.124023 0.893999,0 1.415929,-0.470254 0.521931,-0.470254 0.521931,-1.276403 0,-0.80615 -0.521931,-1.276404 -0.52193,-0.470254 -1.415929,-0.470254 -0.418578,0 -0.837156,0.09302 -0.41341,0.09302 -0.847491,0.289387 z"
         id="path47001" />
      <path
         d="m 55.290101,53.125968 q 0.749306,0.160197 1.167884,0.666624 0.423745,0.506427 0.423745,1.250566 0,1.142045 -0.785479,1.767328 -0.785479,0.625283 -2.232415,0.625283 -0.485757,0 -1.002519,-0.09819 -0.511595,-0.09302 -1.059364,-0.284219 v -1.007688 q 0.434081,0.253214 0.950844,0.382405 0.516762,0.12919 1.080034,0.12919 0.981849,0 1.493444,-0.387572 0.516762,-0.387572 0.516762,-1.126542 0,-0.682127 -0.480589,-1.064531 -0.475422,-0.387572 -1.32808,-0.387572 h -0.899167 v -0.857826 h 0.940508 q 0.769976,0 1.178219,-0.30489 0.408242,-0.310058 0.408242,-0.888832 0,-0.594277 -0.423745,-0.909503 -0.418578,-0.320392 -1.204057,-0.320392 -0.428913,0 -0.919838,0.09302 -0.490924,0.09302 -1.080034,0.289387 v -0.930173 q 0.594278,-0.165364 1.11104,-0.248046 0.521931,-0.08268 0.981849,-0.08268 1.188554,0 1.881016,0.542601 0.692462,0.537433 0.692462,1.457271 0,0.640785 -0.366901,1.085201 -0.366902,0.439249 -1.043861,0.60978 z"
         id="path47003" />
      <path
         d="m 61.093346,50.257935 q -0.80615,0 -1.214392,0.795815 -0.403075,0.790647 -0.403075,2.382276 0,1.586461 0.403075,2.382276 0.408242,0.790647 1.214392,0.790647 0.811317,0 1.214392,-0.790647 0.408243,-0.795815 0.408243,-2.382276 0,-1.591629 -0.408243,-2.382276 -0.403075,-0.795815 -1.214392,-0.795815 z m 0,-0.82682 q 1.297074,0 1.979201,1.028358 0.687294,1.02319 0.687294,2.976553 0,1.948195 -0.687294,2.976553 -0.682127,1.02319 -1.979201,1.02319 -1.297074,0 -1.984369,-1.02319 -0.682126,-1.028358 -0.682126,-2.976553 0,-1.953363 0.682126,-2.976553 0.687295,-1.028358 1.984369,-1.028358 z"
         id="path47005" />
      <path
         d="m 71.826502,50.480143 -2.63549,4.118599 h 2.63549 z m -0.273884,-0.909502 h 1.312577 v 5.028101 H 73.9659 v 0.868161 h -1.100705 v 1.819005 h -1.038693 v -1.819005 h -3.48298 v -1.007687 z"
         id="path47007" />
      <path
         d="m 77.924305,50.257935 q -0.806149,0 -1.214392,0.795815 -0.403075,0.790647 -0.403075,2.382276 0,1.586461 0.403075,2.382276 0.408243,0.790647 1.214392,0.790647 0.811318,0 1.214393,-0.790647 0.408242,-0.795815 0.408242,-2.382276 0,-1.591629 -0.408242,-2.382276 -0.403075,-0.795815 -1.214393,-0.795815 z m 0,-0.82682 q 1.297075,0 1.979201,1.028358 0.687295,1.02319 0.687295,2.976553 0,1.948195 -0.687295,2.976553 -0.682126,1.02319 -1.979201,1.02319 -1.297074,0 -1.984368,-1.02319 -0.682127,-1.028358 -0.682127,-2.976553 0,-1.953363 0.682127,-2.976553 0.687294,-1.028358 1.984368,-1.028358 z"
         id="path47009" />
      <path
         d="m 89.163896,49.570641 h 4.097928 v 0.878497 h -3.141917 v 1.891351 q 0.227375,-0.07751 0.454751,-0.113688 0.227375,-0.04134 0.454751,-0.04134 1.291907,0 2.04638,0.707965 0.754474,0.707965 0.754474,1.91719 0,1.245398 -0.775144,1.93786 -0.775144,0.687294 -2.185906,0.687294 -0.485757,0 -0.992185,-0.08268 -0.50126,-0.08268 -1.038693,-0.248046 v -1.049028 q 0.465087,0.253213 0.961179,0.377236 0.496092,0.124023 1.049028,0.124023 0.894,0 1.41593,-0.470254 0.52193,-0.470254 0.52193,-1.276403 0,-0.80615 -0.52193,-1.276404 -0.52193,-0.470254 -1.41593,-0.470254 -0.418578,0 -0.837155,0.09302 -0.413411,0.09302 -0.847491,0.289387 z"
         id="path47011" />
      <path
         d="m 98.119389,50.257935 q -0.80615,0 -1.214392,0.795815 -0.403075,0.790647 -0.403075,2.382276 0,1.586461 0.403075,2.382276 0.408242,0.790647 1.214392,0.790647 0.811317,0 1.214392,-0.790647 0.408243,-0.795815 0.408243,-2.382276 0,-1.591629 -0.408243,-2.382276 -0.403075,-0.795815 -1.214392,-0.795815 z m 0,-0.82682 q 1.297074,0 1.979201,1.028358 0.68729,1.02319 0.68729,2.976553 0,1.948195 -0.68729,2.976553 -0.682127,1.02319 -1.979201,1.02319 -1.297074,0 -1.984369,-1.02319 -0.682126,-1.028358 -0.682126,-2.976553 0,-1.953363 0.682126,-2.976553 0.687295,-1.028358 1.984369,-1.028358 z"
         id="path47013" />
      <path
         d="m 127.06844,56.407411 h 3.64317 v 0.878497 h -4.89891 v -0.878497 q 0.59428,-0.614947 1.61747,-1.648473 1.02836,-1.038693 1.29191,-1.338415 0.50126,-0.563271 0.69763,-0.950843 0.20153,-0.39274 0.20153,-0.769977 0,-0.614947 -0.43408,-1.002519 -0.42891,-0.387572 -1.12137,-0.387572 -0.49093,0 -1.03869,0.170531 -0.54261,0.170532 -1.16272,0.516763 V 49.94271 q 0.63045,-0.253214 1.17822,-0.382404 0.54777,-0.129191 1.00252,-0.129191 1.19889,0 1.91202,0.599445 0.71313,0.599444 0.71313,1.601964 0,0.475422 -0.18086,0.904335 -0.1757,0.423745 -0.64596,1.002519 -0.12919,0.149862 -0.82165,0.868162 -0.69246,0.713132 -1.95336,1.999871 z"
         id="path47015" />
      <path
         d="m 135.1351,50.257935 q -0.80615,0 -1.21439,0.795815 -0.40308,0.790647 -0.40308,2.382276 0,1.586461 0.40308,2.382276 0.40824,0.790647 1.21439,0.790647 0.81132,0 1.21439,-0.790647 0.40824,-0.795815 0.40824,-2.382276 0,-1.591629 -0.40824,-2.382276 -0.40307,-0.795815 -1.21439,-0.795815 z m 0,-0.82682 q 1.29707,0 1.9792,1.028358 0.68729,1.02319 0.68729,2.976553 0,1.948195 -0.68729,2.976553 -0.68213,1.02319 -1.9792,1.02319 -1.29708,0 -1.98437,-1.02319 -0.68213,-1.028358 -0.68213,-2.976553 0,-1.953363 0.68213,-2.976553 0.68729,-1.028358 1.98437,-1.028358 z"
         id="path47017" />
      <path
         d="m 141.86851,50.257935 q -0.80615,0 -1.21439,0.795815 -0.40308,0.790647 -0.40308,2.382276 0,1.586461 0.40308,2.382276 0.40824,0.790647 1.21439,0.790647 0.81132,0 1.21439,-0.790647 0.40825,-0.795815 0.40825,-2.382276 0,-1.591629 -0.40825,-2.382276 -0.40307,-0.795815 -1.21439,-0.795815 z m 0,-0.82682 q 1.29708,0 1.9792,1.028358 0.6873,1.02319 0.6873,2.976553 0,1.948195 -0.6873,2.976553 -0.68212,1.02319 -1.9792,1.02319 -1.29707,0 -1.98437,-1.02319 -0.68212,-1.028358 -0.68212,-2.976553 0,-1.953363 0.68212,-2.976553 0.6873,-1.028358 1.98437,-1.028358 z"
         id="path47019" />
    </g>
  </g>
</svg>
