<?xml version="1.0" standalone="no"?>
<!DOCTYPE svg PUBLIC "-//W3C//DTD SVG 20010904//EN"
 "http://www.w3.org/TR/2001/REC-SVG-20010904/DTD/svg10.dtd">
<svg version="1.0" xmlns="http://www.w3.org/2000/svg"
 width="596.000000pt" height="596.000000pt" viewBox="0 0 596.000000 596.000000"
 preserveAspectRatio="xMidYMid meet">
<metadata>
Created by potrace 1.14, written by Peter Selinger 2001-2017
</metadata>
<g transform="translate(0.000000,596.000000) scale(0.100000,-0.100000)"
fill="#000000" stroke="none">
<path d="M20 5515 c0 -8 7 -15 15 -15 8 0 15 7 15 15 0 8 -7 15 -15 15 -8 0
-15 -7 -15 -15z"/>
<path d="M80 5515 c0 -8 7 -15 15 -15 8 0 15 7 15 15 0 8 -7 15 -15 15 -8 0
-15 -7 -15 -15z"/>
<path d="M140 5515 c0 -8 7 -15 15 -15 8 0 15 7 15 15 0 8 -7 15 -15 15 -8 0
-15 -7 -15 -15z"/>
<path d="M200 5515 c0 -8 7 -15 15 -15 8 0 15 7 15 15 0 8 -7 15 -15 15 -8 0
-15 -7 -15 -15z"/>
<path d="M260 5515 c0 -8 7 -15 15 -15 8 0 15 7 15 15 0 8 -7 15 -15 15 -8 0
-15 -7 -15 -15z"/>
<path d="M320 5515 c0 -8 7 -15 15 -15 8 0 15 7 15 15 0 8 -7 15 -15 15 -8 0
-15 -7 -15 -15z"/>
<path d="M380 5515 c0 -8 7 -15 15 -15 8 0 15 7 15 15 0 8 -7 15 -15 15 -8 0
-15 -7 -15 -15z"/>
<path d="M440 5515 c0 -8 7 -15 15 -15 8 0 15 7 15 15 0 8 -7 15 -15 15 -8 0
-15 -7 -15 -15z"/>
<path d="M500 5515 c0 -8 7 -15 15 -15 8 0 15 7 15 15 0 8 -7 15 -15 15 -8 0
-15 -7 -15 -15z"/>
<path d="M560 5515 c0 -8 7 -15 15 -15 8 0 15 7 15 15 0 8 -7 15 -15 15 -8 0
-15 -7 -15 -15z"/>
<path d="M620 5515 c0 -8 7 -15 15 -15 8 0 15 7 15 15 0 8 -7 15 -15 15 -8 0
-15 -7 -15 -15z"/>
<path d="M680 5515 c0 -8 7 -15 15 -15 8 0 15 7 15 15 0 8 -7 15 -15 15 -8 0
-15 -7 -15 -15z"/>
<path d="M740 5515 c0 -8 7 -15 15 -15 8 0 15 7 15 15 0 8 -7 15 -15 15 -8 0
-15 -7 -15 -15z"/>
<path d="M800 5515 c0 -8 7 -15 15 -15 8 0 15 7 15 15 0 8 -7 15 -15 15 -8 0
-15 -7 -15 -15z"/>
<path d="M860 5515 c0 -8 7 -15 15 -15 8 0 15 7 15 15 0 8 -7 15 -15 15 -8 0
-15 -7 -15 -15z"/>
<path d="M920 5515 c0 -8 7 -15 15 -15 8 0 15 7 15 15 0 8 -7 15 -15 15 -8 0
-15 -7 -15 -15z"/>
<path d="M980 5515 c0 -8 7 -15 15 -15 8 0 15 7 15 15 0 8 -7 15 -15 15 -8 0
-15 -7 -15 -15z"/>
<path d="M1040 5515 c0 -8 7 -15 15 -15 8 0 15 7 15 15 0 8 -7 15 -15 15 -8 0
-15 -7 -15 -15z"/>
<path d="M1100 5515 c0 -8 7 -15 15 -15 8 0 15 7 15 15 0 8 -7 15 -15 15 -8 0
-15 -7 -15 -15z"/>
<path d="M1160 5515 c0 -8 7 -15 15 -15 8 0 15 7 15 15 0 8 -7 15 -15 15 -8 0
-15 -7 -15 -15z"/>
<path d="M1220 5515 c0 -8 7 -15 15 -15 8 0 15 7 15 15 0 8 -7 15 -15 15 -8 0
-15 -7 -15 -15z"/>
<path d="M1280 5515 c0 -8 7 -15 15 -15 8 0 15 7 15 15 0 8 -7 15 -15 15 -8 0
-15 -7 -15 -15z"/>
<path d="M1340 5515 c0 -8 7 -15 15 -15 8 0 15 7 15 15 0 8 -7 15 -15 15 -8 0
-15 -7 -15 -15z"/>
<path d="M1400 5515 c0 -8 7 -15 15 -15 8 0 15 7 15 15 0 8 -7 15 -15 15 -8 0
-15 -7 -15 -15z"/>
<path d="M1460 5515 c0 -8 7 -15 15 -15 8 0 15 7 15 15 0 8 -7 15 -15 15 -8 0
-15 -7 -15 -15z"/>
<path d="M1520 5515 c0 -8 7 -15 15 -15 8 0 15 7 15 15 0 8 -7 15 -15 15 -8 0
-15 -7 -15 -15z"/>
<path d="M1580 5515 c0 -8 7 -15 15 -15 8 0 15 7 15 15 0 8 -7 15 -15 15 -8 0
-15 -7 -15 -15z"/>
<path d="M1640 5515 c0 -8 7 -15 15 -15 8 0 15 7 15 15 0 8 -7 15 -15 15 -8 0
-15 -7 -15 -15z"/>
<path d="M1700 5515 c0 -8 7 -15 15 -15 8 0 15 7 15 15 0 8 -7 15 -15 15 -8 0
-15 -7 -15 -15z"/>
<path d="M1760 5515 c0 -8 7 -15 15 -15 8 0 15 7 15 15 0 8 -7 15 -15 15 -8 0
-15 -7 -15 -15z"/>
<path d="M1820 5515 c0 -8 7 -15 15 -15 8 0 15 7 15 15 0 8 -7 15 -15 15 -8 0
-15 -7 -15 -15z"/>
<path d="M1880 5515 c0 -8 7 -15 15 -15 8 0 15 7 15 15 0 8 -7 15 -15 15 -8 0
-15 -7 -15 -15z"/>
<path d="M1940 5515 c0 -8 7 -15 15 -15 8 0 15 7 15 15 0 8 -7 15 -15 15 -8 0
-15 -7 -15 -15z"/>
<path d="M2000 5515 c0 -8 7 -15 15 -15 8 0 15 7 15 15 0 8 -7 15 -15 15 -8 0
-15 -7 -15 -15z"/>
<path d="M2060 5515 c0 -8 7 -15 15 -15 8 0 15 7 15 15 0 8 -7 15 -15 15 -8 0
-15 -7 -15 -15z"/>
<path d="M2120 5515 c0 -8 7 -15 15 -15 8 0 15 7 15 15 0 8 -7 15 -15 15 -8 0
-15 -7 -15 -15z"/>
<path d="M2180 5515 c0 -8 7 -15 15 -15 8 0 15 7 15 15 0 8 -7 15 -15 15 -8 0
-15 -7 -15 -15z"/>
<path d="M2240 5515 c0 -8 7 -15 15 -15 8 0 15 7 15 15 0 8 -7 15 -15 15 -8 0
-15 -7 -15 -15z"/>
<path d="M2300 5515 c0 -8 7 -15 15 -15 8 0 15 7 15 15 0 8 -7 15 -15 15 -8 0
-15 -7 -15 -15z"/>
<path d="M2360 5515 c0 -8 7 -15 15 -15 8 0 15 7 15 15 0 8 -7 15 -15 15 -8 0
-15 -7 -15 -15z"/>
<path d="M2420 5515 c0 -8 7 -15 15 -15 8 0 15 7 15 15 0 8 -7 15 -15 15 -8 0
-15 -7 -15 -15z"/>
<path d="M2480 5515 c0 -8 7 -15 15 -15 8 0 15 7 15 15 0 8 -7 15 -15 15 -8 0
-15 -7 -15 -15z"/>
<path d="M2540 5515 c0 -8 7 -15 15 -15 8 0 15 7 15 15 0 8 -7 15 -15 15 -8 0
-15 -7 -15 -15z"/>
<path d="M2600 5515 c0 -8 7 -15 15 -15 8 0 15 7 15 15 0 8 -7 15 -15 15 -8 0
-15 -7 -15 -15z"/>
<path d="M2660 5515 c0 -8 7 -15 15 -15 8 0 15 7 15 15 0 8 -7 15 -15 15 -8 0
-15 -7 -15 -15z"/>
<path d="M2720 5515 c0 -8 7 -15 15 -15 8 0 15 7 15 15 0 8 -7 15 -15 15 -8 0
-15 -7 -15 -15z"/>
<path d="M2780 5515 c0 -8 7 -15 15 -15 8 0 15 7 15 15 0 8 -7 15 -15 15 -8 0
-15 -7 -15 -15z"/>
<path d="M2840 5515 c0 -8 7 -15 15 -15 8 0 15 7 15 15 0 8 -7 15 -15 15 -8 0
-15 -7 -15 -15z"/>
<path d="M2900 5515 c0 -8 7 -15 15 -15 8 0 15 7 15 15 0 8 -7 15 -15 15 -8 0
-15 -7 -15 -15z"/>
<path d="M2960 5515 c0 -8 7 -15 15 -15 8 0 15 7 15 15 0 8 -7 15 -15 15 -8 0
-15 -7 -15 -15z"/>
<path d="M3020 5515 c0 -8 7 -15 15 -15 8 0 15 7 15 15 0 8 -7 15 -15 15 -8 0
-15 -7 -15 -15z"/>
<path d="M3080 5515 c0 -8 7 -15 15 -15 8 0 15 7 15 15 0 8 -7 15 -15 15 -8 0
-15 -7 -15 -15z"/>
<path d="M3140 5515 c0 -8 7 -15 15 -15 8 0 15 7 15 15 0 8 -7 15 -15 15 -8 0
-15 -7 -15 -15z"/>
<path d="M3200 5515 c0 -8 7 -15 15 -15 8 0 15 7 15 15 0 8 -7 15 -15 15 -8 0
-15 -7 -15 -15z"/>
<path d="M3260 5515 c0 -8 7 -15 15 -15 8 0 15 7 15 15 0 8 -7 15 -15 15 -8 0
-15 -7 -15 -15z"/>
<path d="M3320 5515 c0 -8 7 -15 15 -15 8 0 15 7 15 15 0 8 -7 15 -15 15 -8 0
-15 -7 -15 -15z"/>
<path d="M3380 5515 c0 -8 7 -15 15 -15 8 0 15 7 15 15 0 8 -7 15 -15 15 -8 0
-15 -7 -15 -15z"/>
<path d="M3440 5515 c0 -8 7 -15 15 -15 8 0 15 7 15 15 0 8 -7 15 -15 15 -8 0
-15 -7 -15 -15z"/>
<path d="M3500 5515 c0 -8 7 -15 15 -15 8 0 15 7 15 15 0 8 -7 15 -15 15 -8 0
-15 -7 -15 -15z"/>
<path d="M3560 5515 c0 -8 7 -15 15 -15 8 0 15 7 15 15 0 8 -7 15 -15 15 -8 0
-15 -7 -15 -15z"/>
<path d="M3620 5515 c0 -8 7 -15 15 -15 8 0 15 7 15 15 0 8 -7 15 -15 15 -8 0
-15 -7 -15 -15z"/>
<path d="M3680 5515 c0 -8 7 -15 15 -15 8 0 15 7 15 15 0 8 -7 15 -15 15 -8 0
-15 -7 -15 -15z"/>
<path d="M3740 5515 c0 -8 7 -15 15 -15 8 0 15 7 15 15 0 8 -7 15 -15 15 -8 0
-15 -7 -15 -15z"/>
<path d="M3800 5515 c0 -8 7 -15 15 -15 8 0 15 7 15 15 0 8 -7 15 -15 15 -8 0
-15 -7 -15 -15z"/>
<path d="M3860 5515 c0 -8 7 -15 15 -15 8 0 15 7 15 15 0 8 -7 15 -15 15 -8 0
-15 -7 -15 -15z"/>
<path d="M3920 5515 c0 -8 7 -15 15 -15 8 0 15 7 15 15 0 8 -7 15 -15 15 -8 0
-15 -7 -15 -15z"/>
<path d="M3980 5515 c0 -8 7 -15 15 -15 8 0 15 7 15 15 0 8 -7 15 -15 15 -8 0
-15 -7 -15 -15z"/>
<path d="M4040 5515 c0 -8 7 -15 15 -15 8 0 15 7 15 15 0 8 -7 15 -15 15 -8 0
-15 -7 -15 -15z"/>
<path d="M4100 5515 c0 -8 7 -15 15 -15 8 0 15 7 15 15 0 8 -7 15 -15 15 -8 0
-15 -7 -15 -15z"/>
<path d="M4160 5515 c0 -8 7 -15 15 -15 8 0 15 7 15 15 0 8 -7 15 -15 15 -8 0
-15 -7 -15 -15z"/>
<path d="M4220 5515 c0 -8 7 -15 15 -15 8 0 15 7 15 15 0 8 -7 15 -15 15 -8 0
-15 -7 -15 -15z"/>
<path d="M4280 5515 c0 -8 7 -15 15 -15 8 0 15 7 15 15 0 8 -7 15 -15 15 -8 0
-15 -7 -15 -15z"/>
<path d="M4340 5515 c0 -8 7 -15 15 -15 8 0 15 7 15 15 0 8 -7 15 -15 15 -8 0
-15 -7 -15 -15z"/>
<path d="M4400 5515 c0 -8 7 -15 15 -15 8 0 15 7 15 15 0 8 -7 15 -15 15 -8 0
-15 -7 -15 -15z"/>
<path d="M4460 5515 c0 -8 7 -15 15 -15 8 0 15 7 15 15 0 8 -7 15 -15 15 -8 0
-15 -7 -15 -15z"/>
<path d="M4520 5515 c0 -8 7 -15 15 -15 8 0 15 7 15 15 0 8 -7 15 -15 15 -8 0
-15 -7 -15 -15z"/>
<path d="M4580 5515 c0 -8 7 -15 15 -15 8 0 15 7 15 15 0 8 -7 15 -15 15 -8 0
-15 -7 -15 -15z"/>
<path d="M4640 5515 c0 -8 7 -15 15 -15 8 0 15 7 15 15 0 8 -7 15 -15 15 -8 0
-15 -7 -15 -15z"/>
<path d="M4700 5515 c0 -8 7 -15 15 -15 8 0 15 7 15 15 0 8 -7 15 -15 15 -8 0
-15 -7 -15 -15z"/>
<path d="M4760 5515 c0 -8 7 -15 15 -15 8 0 15 7 15 15 0 8 -7 15 -15 15 -8 0
-15 -7 -15 -15z"/>
<path d="M4820 5515 c0 -8 7 -15 15 -15 8 0 15 7 15 15 0 8 -7 15 -15 15 -8 0
-15 -7 -15 -15z"/>
<path d="M4880 5515 c0 -8 7 -15 15 -15 8 0 15 7 15 15 0 8 -7 15 -15 15 -8 0
-15 -7 -15 -15z"/>
<path d="M4940 5515 c0 -8 7 -15 15 -15 8 0 15 7 15 15 0 8 -7 15 -15 15 -8 0
-15 -7 -15 -15z"/>
<path d="M5000 5515 c0 -8 7 -15 15 -15 8 0 15 7 15 15 0 8 -7 15 -15 15 -8 0
-15 -7 -15 -15z"/>
<path d="M5060 5515 c0 -8 7 -15 15 -15 8 0 15 7 15 15 0 8 -7 15 -15 15 -8 0
-15 -7 -15 -15z"/>
<path d="M5120 5515 c0 -8 7 -15 15 -15 8 0 15 7 15 15 0 8 -7 15 -15 15 -8 0
-15 -7 -15 -15z"/>
<path d="M5180 5515 c0 -8 7 -15 15 -15 8 0 15 7 15 15 0 8 -7 15 -15 15 -8 0
-15 -7 -15 -15z"/>
<path d="M5240 5515 c0 -8 7 -15 15 -15 8 0 15 7 15 15 0 8 -7 15 -15 15 -8 0
-15 -7 -15 -15z"/>
<path d="M5300 5515 c0 -8 7 -15 15 -15 8 0 15 7 15 15 0 8 -7 15 -15 15 -8 0
-15 -7 -15 -15z"/>
<path d="M5360 5515 c0 -8 7 -15 15 -15 8 0 15 7 15 15 0 8 -7 15 -15 15 -8 0
-15 -7 -15 -15z"/>
<path d="M5420 5515 c0 -8 7 -15 15 -15 8 0 15 7 15 15 0 8 -7 15 -15 15 -8 0
-15 -7 -15 -15z"/>
<path d="M5480 5515 c0 -8 7 -15 15 -15 8 0 15 7 15 15 0 8 -7 15 -15 15 -8 0
-15 -7 -15 -15z"/>
<path d="M5540 5515 c0 -8 7 -15 15 -15 8 0 15 7 15 15 0 8 -7 15 -15 15 -8 0
-15 -7 -15 -15z"/>
<path d="M5600 5515 c0 -8 7 -15 15 -15 8 0 15 7 15 15 0 8 -7 15 -15 15 -8 0
-15 -7 -15 -15z"/>
<path d="M5660 5515 c0 -8 7 -15 15 -15 8 0 15 7 15 15 0 8 -7 15 -15 15 -8 0
-15 -7 -15 -15z"/>
<path d="M5720 5515 c0 -8 7 -15 15 -15 8 0 15 7 15 15 0 8 -7 15 -15 15 -8 0
-15 -7 -15 -15z"/>
<path d="M5780 5515 c0 -8 7 -15 15 -15 8 0 15 7 15 15 0 8 -7 15 -15 15 -8 0
-15 -7 -15 -15z"/>
<path d="M5840 5515 c0 -8 7 -15 15 -15 8 0 15 7 15 15 0 8 -7 15 -15 15 -8 0
-15 -7 -15 -15z"/>
<path d="M5900 5515 c0 -8 7 -15 15 -15 8 0 15 7 15 15 0 8 -7 15 -15 15 -8 0
-15 -7 -15 -15z"/>
<path d="M2447 4573 c-12 -11 -8 -50 6 -61 7 -6 40 -14 72 -18 44 -6 66 -14
93 -38 l35 -31 -16 30 c-36 67 -108 125 -154 125 -16 0 -33 -3 -36 -7z"/>
<path d="M550 4536 c0 -18 -37 -38 -44 -23 -3 7 -3 2 0 -10 3 -13 1 -24 -5
-24 -11 -2 -26 -5 -38 -9 -5 -1 -11 -2 -15 -1 -5 0 -8 -6 -8 -15 0 -8 -5 -12
-10 -9 -6 3 -13 -1 -16 -9 -3 -9 -10 -13 -15 -11 -4 3 -18 -4 -29 -15 -12 -12
-30 -22 -41 -23 -10 -1 -19 -8 -20 -17 0 -11 -2 -11 -6 -2 -3 9 -11 6 -25 -10
-16 -19 -21 -20 -29 -8 -8 11 -9 9 -4 -9 5 -16 4 -21 -4 -17 -6 4 -11 2 -11
-4 0 -7 -7 -10 -15 -6 -8 3 -15 1 -15 -5 0 -6 -4 -7 -10 -4 -5 3 -10 -1 -10
-10 0 -9 -4 -13 -10 -10 -5 3 -15 -3 -22 -15 -7 -11 -20 -20 -30 -20 -9 0 -19
-4 -22 -9 -3 -4 -16 -6 -29 -4 -17 3 -26 -2 -36 -20 -16 -29 -3 -61 81 -204
64 -109 128 -242 128 -267 0 -10 18 -42 39 -70 32 -42 41 -64 50 -126 15 -92
42 -140 118 -205 134 -117 152 -123 205 -76 l33 29 -131 134 c-138 140 -154
161 -154 202 0 38 13 32 48 -21 40 -60 118 -144 252 -267 118 -109 161 -137
263 -167 82 -24 141 -60 247 -148 114 -95 192 -173 206 -206 10 -26 17 -29 46
-27 31 3 50 -10 199 -134 90 -75 237 -195 327 -266 89 -71 160 -133 157 -138
-3 -4 -20 -11 -38 -14 -19 -4 -50 -14 -69 -24 -42 -20 -118 -85 -118 -99 0 -6
-6 -16 -14 -22 -11 -9 -19 -1 -39 41 -127 257 -538 40 -643 -339 -48 -176 -40
-288 28 -378 77 -103 281 -116 410 -26 56 40 73 96 46 155 -21 48 -60 45 -142
-11 -119 -81 -160 -54 -152 102 6 125 50 235 139 349 40 50 104 96 134 96 44
0 19 -44 -71 -130 -31 -30 -40 -45 -40 -72 0 -46 31 -84 77 -96 51 -14 91 0
142 49 23 22 43 39 47 39 3 0 8 -17 11 -39 5 -38 32 -106 52 -128 39 -44 104
-141 106 -158 3 -29 -11 -55 -30 -55 -29 0 -41 22 -41 75 0 63 -19 85 -74 85
-31 0 -45 -7 -73 -37 -40 -45 -47 -67 -41 -134 4 -41 12 -57 43 -89 49 -50 90
-64 174 -58 72 5 109 21 158 66 52 48 76 104 75 173 -1 63 -5 73 -101 236 -47
79 -54 130 -28 193 26 61 81 95 126 79 39 -15 23 -71 -39 -134 -53 -53 -61
-80 -39 -128 30 -65 153 -61 211 7 70 81 92 210 49 294 -11 23 -21 43 -21 45
0 7 105 57 118 57 9 0 105 -73 140 -107 7 -6 12 -36 12 -68 0 -75 26 -277 51
-393 11 -51 18 -100 15 -110 -3 -9 -22 -35 -41 -57 -42 -46 -52 -77 -36 -111
17 -38 54 -50 108 -36 46 13 73 5 73 -21 0 -16 79 -145 109 -180 111 -127 216
-165 318 -116 53 26 88 69 103 129 9 38 8 58 -5 110 -29 114 -29 117 -5 142
31 33 72 94 106 160 29 57 29 58 45 36 10 -12 22 -38 28 -57 6 -20 33 -67 59
-106 61 -91 111 -119 192 -110 30 4 81 7 113 6 79 -2 120 22 183 104 73 95
147 270 206 485 30 110 32 238 5 268 -54 60 -170 73 -260 28 -61 -29 -77 -59
-57 -105 13 -31 74 -73 99 -69 10 2 19 0 21 -5 10 -27 -80 -330 -120 -405 -11
-20 -20 -41 -20 -47 0 -5 -16 -31 -35 -57 -32 -43 -39 -48 -74 -48 -37 0 -41
3 -84 67 -82 126 -83 131 -24 160 62 30 139 103 172 165 24 44 29 65 29 123 0
82 -19 122 -86 180 l-41 34 17 44 c10 26 16 72 16 118 0 85 -20 134 -87 216
-29 35 -35 48 -27 61 6 10 85 55 175 103 90 47 224 120 297 162 74 42 139 77
146 77 7 0 97 -45 202 -100 213 -113 1052 -534 1129 -567 139 -59 277 -76 292
-36 8 19 -10 32 -290 209 -86 54 -188 119 -227 144 -38 25 -119 77 -180 115
-294 186 -602 386 -622 403 -28 23 -54 2 387 310 83 58 177 123 210 146 33 23
62 43 65 46 3 3 32 23 65 45 33 22 114 78 181 125 67 47 160 112 208 145 179
123 188 131 170 146 -32 26 -130 15 -224 -26 -90 -38 -421 -208 -505 -258 -27
-17 -79 -47 -115 -67 -36 -20 -83 -47 -105 -59 -22 -13 -170 -98 -330 -189
-159 -91 -298 -170 -307 -176 -16 -10 -52 2 -83 27 -26 21 -309 164 -490 247
-89 41 -95 52 -57 98 18 20 44 57 59 82 25 41 28 54 28 140 0 84 -3 101 -27
146 -54 102 -160 166 -278 166 -59 1 -80 -4 -135 -31 -107 -53 -160 -130 -171
-248 -9 -96 12 -162 71 -230 47 -53 82 -73 405 -225 58 -28 143 -68 190 -90
47 -22 117 -55 155 -73 74 -35 121 -75 112 -97 -3 -9 -43 -18 -123 -27 -385
-41 -636 -118 -866 -267 -85 -55 -233 -200 -288 -283 -47 -71 -108 -197 -135
-281 -30 -94 -32 -96 -63 -63 -137 147 -237 257 -240 263 -1 4 11 37 28 74 53
118 38 214 -45 305 -18 20 -42 45 -52 57 -10 12 -109 115 -219 230 -231 240
-243 253 -272 314 -12 25 -39 63 -59 86 -21 22 -77 83 -124 135 -189 206 -426
437 -519 505 -92 67 -190 93 -347 94 -89 0 -102 2 -107 18 -15 46 -65 109 -90
114 -15 3 -26 1 -26 -6z m3010 -410 c65 -33 105 -100 105 -177 0 -49 -5 -64
-32 -101 -82 -114 -246 -116 -322 -5 -53 78 -49 165 11 233 65 73 155 93 238
50z m560 -1012 c0 -20 -19 -56 -39 -72 -37 -30 -95 -64 -251 -147 -565 -300
-559 -296 -608 -390 -22 -42 -26 -64 -27 -132 0 -53 4 -86 13 -95 6 -6 12 -20
12 -30 0 -10 -6 -19 -12 -19 -28 -3 -119 3 -239 16 -70 8 -136 11 -148 8 -43
-11 -50 0 -36 59 48 192 166 382 316 504 225 184 535 280 1002 313 9 0 17 -6
17 -15z m-553 -559 c44 -9 108 -77 123 -131 13 -47 7 -121 -13 -148 -9 -12
-33 -18 -92 -22 -44 -2 -110 -12 -147 -20 -37 -9 -72 -13 -78 -9 -25 16 -52
90 -52 145 0 69 31 125 88 161 38 23 96 39 124 33 8 -1 29 -5 47 -9z m-1294
-147 c33 -17 107 -79 107 -89 0 -15 -43 -28 -72 -22 -32 6 -88 59 -88 82 0 15
18 41 28 41 2 0 13 -5 25 -12z m672 -202 c192 -27 258 -30 294 -12 37 20 51
14 51 -21 0 -28 -28 -93 -40 -93 -5 0 -16 -3 -26 -7 -12 -4 -15 -3 -10 5 5 9
-11 12 -57 12 -77 0 -82 -6 -123 -127 -14 -43 -32 -85 -40 -94 -25 -28 -16
-36 44 -35 62 1 111 -23 112 -56 0 -9 5 -18 11 -20 17 -6 -2 -38 -22 -38 -10
0 -19 5 -19 10 0 6 -27 10 -60 10 -67 0 -90 -16 -117 -80 -58 -140 -133 -251
-189 -278 -31 -14 -37 -14 -69 1 -19 9 -35 22 -35 28 0 6 15 29 34 52 19 23
50 75 71 114 39 78 49 127 26 128 -8 0 -19 7 -24 17 -14 21 4 43 52 66 23 11
38 27 44 47 24 81 73 203 89 227 25 37 16 48 -37 46 -24 0 -42 -4 -40 -8 2 -3
-10 -15 -26 -25 -17 -11 -39 -35 -50 -52 -25 -40 -32 -40 -76 -7 -27 21 -33
32 -33 64 0 69 62 122 160 139 3 0 50 -6 105 -13z m783 -18 c73 -27 112 -77
133 -168 21 -90 12 -123 -49 -191 -48 -53 -143 -116 -190 -125 l-31 -6 30 -52
c17 -28 33 -59 36 -68 3 -10 9 -18 14 -18 5 0 9 -6 9 -13 0 -8 17 -32 38 -55
32 -35 45 -42 75 -42 35 0 37 -1 37 -35 0 -48 -25 -60 -93 -45 -99 23 -123 48
-219 239 -41 81 -68 111 -68 76 0 -35 -100 -211 -149 -262 -54 -56 -74 -63
-121 -38 -37 19 -38 34 -4 66 30 28 89 140 132 254 17 44 49 127 71 185 55
141 73 170 109 170 32 0 56 -22 65 -60 8 -30 -38 -162 -64 -186 -31 -28 -25
-47 14 -39 129 28 247 150 247 254 0 35 -29 81 -56 91 -38 15 -123 12 -139 -4
-8 -7 -31 -17 -52 -21 -20 -3 -56 -20 -78 -36 -46 -33 -73 -31 -110 11 -18 19
-18 24 -5 47 20 36 87 68 173 82 40 7 79 14 87 15 30 6 106 -7 158 -26z m472
0 c11 -7 24 -24 30 -38 22 -53 -7 -283 -45 -367 -8 -17 -15 -36 -15 -41 0 -19
-55 -146 -89 -207 -46 -81 -86 -129 -126 -150 -31 -17 -35 -17 -69 -1 -20 9
-36 23 -36 31 0 8 16 31 35 52 72 78 172 329 215 537 24 118 24 126 5 126 -8
0 -15 -4 -15 -9 0 -5 -7 -16 -15 -25 -14 -13 -20 -13 -55 6 -43 23 -53 55 -24
78 43 37 152 40 204 8z m-2437 7 c50 -24 73 -69 80 -158 5 -59 3 -85 -8 -106
-22 -43 -64 -90 -95 -106 -25 -13 -32 -12 -69 5 -22 11 -45 29 -51 41 -10 18
-5 27 45 75 75 73 106 149 73 182 -13 13 -48 16 -48 4 0 -4 -15 -16 -32 -27
-109 -62 -200 -190 -257 -356 -39 -117 -45 -165 -26 -218 19 -56 39 -70 96
-71 37 0 58 8 109 41 70 45 95 47 95 7 -1 -15 3 -24 7 -22 21 13 5 -38 -19
-61 -33 -30 -154 -71 -139 -47 3 5 -8 6 -25 4 -50 -7 -137 8 -171 31 -77 52
-105 132 -89 254 25 199 121 372 263 477 81 60 196 83 261 51z m515 -12 c49
-32 77 -90 87 -178 9 -81 -16 -139 -77 -179 -22 -14 -33 -15 -67 -6 -73 19
-94 65 -42 96 42 25 81 91 81 136 0 41 -34 88 -65 88 -33 0 -113 -70 -141
-124 -16 -30 -32 -52 -36 -50 -11 7 -10 -44 2 -86 5 -20 26 -63 46 -95 75
-122 86 -146 95 -211 11 -82 -4 -120 -70 -168 -36 -26 -51 -31 -94 -29 -139 6
-195 41 -205 129 -4 37 0 49 23 79 21 28 33 35 53 33 25 -3 27 -7 32 -66 4
-48 10 -67 24 -78 40 -29 107 -10 126 37 17 41 0 83 -75 184 -73 98 -89 142
-83 235 9 158 133 280 283 280 49 0 69 -5 103 -27z m1400 -109 c39 -27 22
-125 -30 -169 -55 -47 -82 -65 -99 -65 -16 0 -15 7 12 73 25 57 30 81 25 119
-4 42 -3 47 17 51 42 8 53 7 75 -9z m-798 -28 c0 -17 -24 -38 -34 -29 -3 4 -5
-2 -4 -13 1 -10 -3 -37 -9 -59 -6 -22 -15 -58 -20 -80 -6 -31 -13 -41 -30 -43
-16 -2 -23 2 -23 12 0 9 -3 16 -8 16 -4 0 -6 18 -4 40 3 28 0 40 -9 40 -7 0
-5 6 7 14 16 13 21 12 36 -1 15 -13 16 -13 11 6 -3 12 -1 21 6 21 6 0 11 6 11
13 0 6 9 27 20 45 20 32 50 44 50 18z m415 -16 c16 -16 37 -30 46 -30 29 0 31
-17 10 -64 -12 -24 -38 -93 -60 -153 -58 -161 -79 -204 -101 -210 -11 -3 -18
-9 -15 -12 2 -4 -2 -8 -10 -8 -8 0 -17 7 -20 16 -5 13 -7 14 -15 1 -8 -13 -12
-11 -26 9 -13 18 -18 20 -25 10 -6 -11 -9 -10 -15 4 -3 9 -10 15 -14 12 -5 -3
9 -36 31 -73 28 -47 38 -74 34 -91 -10 -42 4 -78 36 -91 23 -10 32 -23 45 -66
21 -72 16 -112 -17 -137 -41 -30 -83 -15 -149 53 -31 31 -62 71 -69 88 -8 18
-17 32 -20 32 -4 0 -22 31 -40 69 l-33 68 51 104 c29 57 56 108 60 112 5 5 35
9 67 9 102 -1 154 28 154 86 0 50 -74 112 -135 112 -31 0 -32 14 -1 100 l23
65 79 6 c43 3 84 6 90 7 5 1 23 -11 39 -28z"/>
<path d="M2040 4390 c-105 -25 -207 -101 -250 -186 -18 -36 -26 -69 -28 -127
-4 -72 -1 -84 27 -142 67 -135 218 -210 332 -165 45 17 114 90 129 134 18 55
-2 110 -52 146 -66 48 -78 42 -78 -36 0 -66 -1 -67 -45 -111 l-45 -45 -64 4
c-113 7 -166 68 -174 198 -7 113 26 174 131 243 83 55 143 70 255 65 79 -4
111 -10 175 -36 190 -77 334 -225 449 -460 22 -46 42 -81 45 -78 5 4 -47 131
-74 181 -61 111 -162 229 -260 303 -53 41 -151 87 -228 107 -63 16 -187 18
-245 5z"/>
<path d="M3975 4377 c-17 -27 -14 -70 7 -111 10 -18 11 -17 23 11 16 39 48 50
80 29 21 -14 37 -41 69 -116 3 -8 4 15 2 51 -5 93 -45 142 -124 155 -36 6 -42
3 -57 -19z"/>
<path d="M4655 4386 c-5 -2 -37 -12 -70 -21 -221 -65 -425 -276 -521 -537 -21
-59 -8 -45 32 35 164 328 405 505 673 495 80 -3 106 -8 153 -31 76 -37 151
-106 178 -164 47 -99 5 -253 -80 -295 -22 -11 -58 -18 -94 -18 -55 0 -61 3
-97 39 -37 37 -39 41 -39 104 0 37 -5 69 -11 73 -18 11 -83 -25 -107 -60 -83
-121 84 -298 241 -255 76 20 164 95 204 174 63 122 34 256 -78 359 -80 74
-145 98 -274 102 -55 2 -104 2 -110 0z"/>
<path d="M5410 4380 c0 -5 16 -10 35 -10 27 0 46 -10 85 -45 53 -47 79 -55
100 -30 37 45 -39 95 -147 95 -42 0 -73 -4 -73 -10z"/>
<path d="M2975 4313 c-72 -38 -91 -71 -98 -173 -6 -74 -6 -74 7 -33 24 70 47
111 72 128 32 21 58 12 76 -26 13 -25 17 -28 27 -15 17 21 19 100 2 120 -17
20 -47 20 -86 -1z"/>
<path d="M2270 4234 c-38 -26 -50 -45 -50 -80 0 -26 9 -40 42 -68 23 -20 45
-36 50 -36 4 0 8 19 8 43 0 61 21 87 71 87 48 0 88 -19 151 -71 55 -46 63 -48
44 -11 -22 41 -106 119 -148 137 -50 20 -137 20 -168 -1z"/>
<path d="M4502 4228 c-22 -13 -53 -34 -69 -48 -36 -31 -87 -99 -81 -106 3 -2
30 16 61 41 64 52 93 65 146 65 49 0 65 -20 66 -78 1 -25 6 -47 12 -49 6 -2
30 14 52 35 59 56 56 102 -9 146 -37 24 -127 21 -178 -6z"/>
<path d="M4116 2610 c-26 -32 -27 -68 -3 -115 10 -19 10 -19 19 1 15 33 63 57
88 44 30 -16 58 -79 66 -149 9 -81 24 -60 24 34 0 108 -33 167 -113 200 -49
20 -51 20 -81 -15z"/>
<path d="M1288 2541 c-61 -39 -80 -78 -86 -172 -5 -93 12 -143 22 -64 11 80
24 120 50 148 32 35 51 34 88 -4 36 -35 47 -29 55 27 4 30 0 45 -17 67 -28 35
-55 34 -112 -2z"/>
<path d="M830 2458 c0 -36 43 -98 90 -129 24 -16 46 -27 48 -24 3 3 -4 22 -15
43 -12 20 -24 51 -27 68 -5 22 -17 35 -42 47 -46 22 -54 21 -54 -5z"/>
<path d="M4968 2453 c-30 -12 -40 -23 -48 -52 -5 -20 -19 -53 -30 -73 -23 -43
-18 -46 29 -17 41 25 64 52 87 102 22 48 11 60 -38 40z"/>
<path d="M4329 2233 c-9 -10 -13 -37 -12 -70 4 -105 71 -152 201 -139 63 7 76
-1 50 -28 -152 -158 -294 -326 -356 -420 -50 -77 -58 -116 -38 -169 27 -73 59
-79 226 -46 115 22 216 20 254 -6 29 -21 80 -19 99 3 39 43 6 150 -59 192 -33
23 -142 27 -207 9 -22 -6 -41 -8 -44 -5 -8 8 33 54 191 217 172 177 193 201
240 268 51 75 49 110 -9 168 -50 51 -38 50 -257 22 -97 -12 -112 -11 -161 4
-68 21 -101 22 -118 0z m101 -38 c54 -19 177 -19 255 0 33 8 72 14 87 15 37 0
82 -41 98 -89 13 -40 13 -41 -28 -95 -47 -61 -38 -52 -217 -237 -71 -74 -155
-161 -185 -194 -30 -33 -71 -72 -90 -86 -19 -15 -33 -29 -30 -32 3 -3 43 6 90
20 47 13 119 27 160 30 71 5 77 4 106 -21 33 -27 69 -114 55 -129 -5 -5 -30 3
-55 17 -40 22 -59 26 -131 26 -47 0 -94 -5 -105 -10 -49 -24 -58 -28 -90 -34
-25 -5 -31 -4 -21 3 11 7 2 8 -27 4 -102 -14 -123 62 -48 175 42 64 130 174
219 273 23 26 76 84 117 130 41 46 93 103 115 128 36 40 38 43 15 36 -14 -4
-45 -20 -69 -36 -38 -25 -55 -29 -110 -29 -124 0 -170 24 -181 93 -9 64 -3 68
70 42z"/>
<path d="M584 2168 c-29 -14 -44 -49 -44 -104 0 -99 53 -138 203 -150 48 -4
87 -4 87 -1 0 3 -24 11 -52 17 -155 37 -199 105 -117 181 l41 38 -31 15 c-34
18 -57 19 -87 4z"/>
<path d="M5136 2093 l-30 -16 25 -18 c48 -37 59 -53 59 -85 0 -52 -29 -73
-150 -111 l-75 -23 91 5 c50 2 108 10 130 17 54 18 84 66 84 135 0 47 -4 59
-29 84 -33 32 -62 36 -105 12z"/>
<path d="M10 455 c0 -8 7 -15 15 -15 8 0 15 7 15 15 0 8 -7 15 -15 15 -8 0
-15 -7 -15 -15z"/>
<path d="M70 455 c0 -8 7 -15 15 -15 8 0 15 7 15 15 0 8 -7 15 -15 15 -8 0
-15 -7 -15 -15z"/>
<path d="M130 455 c0 -8 7 -15 15 -15 8 0 15 7 15 15 0 8 -7 15 -15 15 -8 0
-15 -7 -15 -15z"/>
<path d="M190 455 c0 -8 7 -15 15 -15 8 0 15 7 15 15 0 8 -7 15 -15 15 -8 0
-15 -7 -15 -15z"/>
<path d="M250 455 c0 -8 7 -15 15 -15 8 0 15 7 15 15 0 8 -7 15 -15 15 -8 0
-15 -7 -15 -15z"/>
<path d="M310 455 c0 -8 7 -15 15 -15 8 0 15 7 15 15 0 8 -7 15 -15 15 -8 0
-15 -7 -15 -15z"/>
<path d="M370 455 c0 -8 7 -15 15 -15 8 0 15 7 15 15 0 8 -7 15 -15 15 -8 0
-15 -7 -15 -15z"/>
<path d="M430 455 c0 -8 7 -15 15 -15 8 0 15 7 15 15 0 8 -7 15 -15 15 -8 0
-15 -7 -15 -15z"/>
<path d="M490 455 c0 -8 7 -15 15 -15 8 0 15 7 15 15 0 8 -7 15 -15 15 -8 0
-15 -7 -15 -15z"/>
<path d="M550 455 c0 -8 7 -15 15 -15 8 0 15 7 15 15 0 8 -7 15 -15 15 -8 0
-15 -7 -15 -15z"/>
<path d="M610 455 c0 -8 7 -15 15 -15 8 0 15 7 15 15 0 8 -7 15 -15 15 -8 0
-15 -7 -15 -15z"/>
<path d="M670 455 c0 -8 7 -15 15 -15 8 0 15 7 15 15 0 8 -7 15 -15 15 -8 0
-15 -7 -15 -15z"/>
<path d="M730 455 c0 -8 7 -15 15 -15 8 0 15 7 15 15 0 8 -7 15 -15 15 -8 0
-15 -7 -15 -15z"/>
<path d="M790 455 c0 -8 7 -15 15 -15 8 0 15 7 15 15 0 8 -7 15 -15 15 -8 0
-15 -7 -15 -15z"/>
<path d="M850 455 c0 -8 7 -15 15 -15 8 0 15 7 15 15 0 8 -7 15 -15 15 -8 0
-15 -7 -15 -15z"/>
<path d="M910 455 c0 -8 7 -15 15 -15 8 0 15 7 15 15 0 8 -7 15 -15 15 -8 0
-15 -7 -15 -15z"/>
<path d="M970 455 c0 -8 7 -15 15 -15 8 0 15 7 15 15 0 8 -7 15 -15 15 -8 0
-15 -7 -15 -15z"/>
<path d="M1030 455 c0 -8 7 -15 15 -15 8 0 15 7 15 15 0 8 -7 15 -15 15 -8 0
-15 -7 -15 -15z"/>
<path d="M1090 455 c0 -8 7 -15 15 -15 8 0 15 7 15 15 0 8 -7 15 -15 15 -8 0
-15 -7 -15 -15z"/>
<path d="M1150 455 c0 -8 7 -15 15 -15 8 0 15 7 15 15 0 8 -7 15 -15 15 -8 0
-15 -7 -15 -15z"/>
<path d="M1210 455 c0 -8 7 -15 15 -15 8 0 15 7 15 15 0 8 -7 15 -15 15 -8 0
-15 -7 -15 -15z"/>
<path d="M1270 455 c0 -8 7 -15 15 -15 8 0 15 7 15 15 0 8 -7 15 -15 15 -8 0
-15 -7 -15 -15z"/>
<path d="M1330 455 c0 -8 7 -15 15 -15 8 0 15 7 15 15 0 8 -7 15 -15 15 -8 0
-15 -7 -15 -15z"/>
<path d="M1390 455 c0 -8 7 -15 15 -15 8 0 15 7 15 15 0 8 -7 15 -15 15 -8 0
-15 -7 -15 -15z"/>
<path d="M1450 455 c0 -8 7 -15 15 -15 8 0 15 7 15 15 0 8 -7 15 -15 15 -8 0
-15 -7 -15 -15z"/>
<path d="M1510 455 c0 -8 7 -15 15 -15 8 0 15 7 15 15 0 8 -7 15 -15 15 -8 0
-15 -7 -15 -15z"/>
<path d="M1570 455 c0 -8 7 -15 15 -15 8 0 15 7 15 15 0 8 -7 15 -15 15 -8 0
-15 -7 -15 -15z"/>
<path d="M1630 455 c0 -8 7 -15 15 -15 8 0 15 7 15 15 0 8 -7 15 -15 15 -8 0
-15 -7 -15 -15z"/>
<path d="M1690 455 c0 -8 7 -15 15 -15 8 0 15 7 15 15 0 8 -7 15 -15 15 -8 0
-15 -7 -15 -15z"/>
<path d="M1750 455 c0 -8 7 -15 15 -15 8 0 15 7 15 15 0 8 -7 15 -15 15 -8 0
-15 -7 -15 -15z"/>
<path d="M1810 455 c0 -8 7 -15 15 -15 8 0 15 7 15 15 0 8 -7 15 -15 15 -8 0
-15 -7 -15 -15z"/>
<path d="M1870 455 c0 -8 7 -15 15 -15 8 0 15 7 15 15 0 8 -7 15 -15 15 -8 0
-15 -7 -15 -15z"/>
<path d="M1930 455 c0 -8 7 -15 15 -15 8 0 15 7 15 15 0 8 -7 15 -15 15 -8 0
-15 -7 -15 -15z"/>
<path d="M1990 455 c0 -8 7 -15 15 -15 8 0 15 7 15 15 0 8 -7 15 -15 15 -8 0
-15 -7 -15 -15z"/>
<path d="M2050 455 c0 -8 7 -15 15 -15 8 0 15 7 15 15 0 8 -7 15 -15 15 -8 0
-15 -7 -15 -15z"/>
<path d="M2110 455 c0 -8 7 -15 15 -15 8 0 15 7 15 15 0 8 -7 15 -15 15 -8 0
-15 -7 -15 -15z"/>
<path d="M2170 455 c0 -8 7 -15 15 -15 8 0 15 7 15 15 0 8 -7 15 -15 15 -8 0
-15 -7 -15 -15z"/>
<path d="M2230 455 c0 -8 7 -15 15 -15 8 0 15 7 15 15 0 8 -7 15 -15 15 -8 0
-15 -7 -15 -15z"/>
<path d="M2290 455 c0 -8 7 -15 15 -15 8 0 15 7 15 15 0 8 -7 15 -15 15 -8 0
-15 -7 -15 -15z"/>
<path d="M2350 455 c0 -8 7 -15 15 -15 8 0 15 7 15 15 0 8 -7 15 -15 15 -8 0
-15 -7 -15 -15z"/>
<path d="M2410 455 c0 -8 7 -15 15 -15 8 0 15 7 15 15 0 8 -7 15 -15 15 -8 0
-15 -7 -15 -15z"/>
<path d="M2470 455 c0 -8 7 -15 15 -15 8 0 15 7 15 15 0 8 -7 15 -15 15 -8 0
-15 -7 -15 -15z"/>
<path d="M2530 455 c0 -8 7 -15 15 -15 8 0 15 7 15 15 0 8 -7 15 -15 15 -8 0
-15 -7 -15 -15z"/>
<path d="M2590 455 c0 -8 7 -15 15 -15 8 0 15 7 15 15 0 8 -7 15 -15 15 -8 0
-15 -7 -15 -15z"/>
<path d="M2650 455 c0 -8 7 -15 15 -15 8 0 15 7 15 15 0 8 -7 15 -15 15 -8 0
-15 -7 -15 -15z"/>
<path d="M2710 455 c0 -8 7 -15 15 -15 8 0 15 7 15 15 0 8 -7 15 -15 15 -8 0
-15 -7 -15 -15z"/>
<path d="M2770 455 c0 -8 7 -15 15 -15 8 0 15 7 15 15 0 8 -7 15 -15 15 -8 0
-15 -7 -15 -15z"/>
<path d="M2830 455 c0 -8 7 -15 15 -15 8 0 15 7 15 15 0 8 -7 15 -15 15 -8 0
-15 -7 -15 -15z"/>
<path d="M2890 455 c0 -8 7 -15 15 -15 8 0 15 7 15 15 0 8 -7 15 -15 15 -8 0
-15 -7 -15 -15z"/>
<path d="M2950 455 c0 -8 7 -15 15 -15 8 0 15 7 15 15 0 8 -7 15 -15 15 -8 0
-15 -7 -15 -15z"/>
<path d="M3010 455 c0 -8 7 -15 15 -15 8 0 15 7 15 15 0 8 -7 15 -15 15 -8 0
-15 -7 -15 -15z"/>
<path d="M3070 455 c0 -8 7 -15 15 -15 8 0 15 7 15 15 0 8 -7 15 -15 15 -8 0
-15 -7 -15 -15z"/>
<path d="M3130 455 c0 -8 7 -15 15 -15 8 0 15 7 15 15 0 8 -7 15 -15 15 -8 0
-15 -7 -15 -15z"/>
<path d="M3190 455 c0 -8 7 -15 15 -15 8 0 15 7 15 15 0 8 -7 15 -15 15 -8 0
-15 -7 -15 -15z"/>
<path d="M3250 455 c0 -8 7 -15 15 -15 8 0 15 7 15 15 0 8 -7 15 -15 15 -8 0
-15 -7 -15 -15z"/>
<path d="M3310 455 c0 -8 7 -15 15 -15 8 0 15 7 15 15 0 8 -7 15 -15 15 -8 0
-15 -7 -15 -15z"/>
<path d="M3370 455 c0 -8 7 -15 15 -15 8 0 15 7 15 15 0 8 -7 15 -15 15 -8 0
-15 -7 -15 -15z"/>
<path d="M3430 455 c0 -8 7 -15 15 -15 8 0 15 7 15 15 0 8 -7 15 -15 15 -8 0
-15 -7 -15 -15z"/>
<path d="M3490 455 c0 -8 7 -15 15 -15 8 0 15 7 15 15 0 8 -7 15 -15 15 -8 0
-15 -7 -15 -15z"/>
<path d="M3550 455 c0 -8 7 -15 15 -15 8 0 15 7 15 15 0 8 -7 15 -15 15 -8 0
-15 -7 -15 -15z"/>
<path d="M3610 455 c0 -8 7 -15 15 -15 8 0 15 7 15 15 0 8 -7 15 -15 15 -8 0
-15 -7 -15 -15z"/>
<path d="M3670 455 c0 -8 7 -15 15 -15 8 0 15 7 15 15 0 8 -7 15 -15 15 -8 0
-15 -7 -15 -15z"/>
<path d="M3730 455 c0 -8 7 -15 15 -15 8 0 15 7 15 15 0 8 -7 15 -15 15 -8 0
-15 -7 -15 -15z"/>
<path d="M3790 455 c0 -8 7 -15 15 -15 8 0 15 7 15 15 0 8 -7 15 -15 15 -8 0
-15 -7 -15 -15z"/>
<path d="M3850 455 c0 -8 7 -15 15 -15 8 0 15 7 15 15 0 8 -7 15 -15 15 -8 0
-15 -7 -15 -15z"/>
<path d="M3910 455 c0 -8 7 -15 15 -15 8 0 15 7 15 15 0 8 -7 15 -15 15 -8 0
-15 -7 -15 -15z"/>
<path d="M3970 455 c0 -8 7 -15 15 -15 8 0 15 7 15 15 0 8 -7 15 -15 15 -8 0
-15 -7 -15 -15z"/>
<path d="M4030 455 c0 -8 7 -15 15 -15 8 0 15 7 15 15 0 8 -7 15 -15 15 -8 0
-15 -7 -15 -15z"/>
<path d="M4090 455 c0 -8 7 -15 15 -15 8 0 15 7 15 15 0 8 -7 15 -15 15 -8 0
-15 -7 -15 -15z"/>
<path d="M4150 455 c0 -8 7 -15 15 -15 8 0 15 7 15 15 0 8 -7 15 -15 15 -8 0
-15 -7 -15 -15z"/>
<path d="M4210 455 c0 -8 7 -15 15 -15 8 0 15 7 15 15 0 8 -7 15 -15 15 -8 0
-15 -7 -15 -15z"/>
<path d="M4270 455 c0 -8 7 -15 15 -15 8 0 15 7 15 15 0 8 -7 15 -15 15 -8 0
-15 -7 -15 -15z"/>
<path d="M4330 455 c0 -8 7 -15 15 -15 8 0 15 7 15 15 0 8 -7 15 -15 15 -8 0
-15 -7 -15 -15z"/>
<path d="M4390 455 c0 -8 7 -15 15 -15 8 0 15 7 15 15 0 8 -7 15 -15 15 -8 0
-15 -7 -15 -15z"/>
<path d="M4450 455 c0 -8 7 -15 15 -15 8 0 15 7 15 15 0 8 -7 15 -15 15 -8 0
-15 -7 -15 -15z"/>
<path d="M4510 455 c0 -8 7 -15 15 -15 8 0 15 7 15 15 0 8 -7 15 -15 15 -8 0
-15 -7 -15 -15z"/>
<path d="M4570 455 c0 -8 7 -15 15 -15 8 0 15 7 15 15 0 8 -7 15 -15 15 -8 0
-15 -7 -15 -15z"/>
<path d="M4630 455 c0 -8 7 -15 15 -15 8 0 15 7 15 15 0 8 -7 15 -15 15 -8 0
-15 -7 -15 -15z"/>
<path d="M4690 455 c0 -8 7 -15 15 -15 8 0 15 7 15 15 0 8 -7 15 -15 15 -8 0
-15 -7 -15 -15z"/>
<path d="M4750 455 c0 -8 7 -15 15 -15 8 0 15 7 15 15 0 8 -7 15 -15 15 -8 0
-15 -7 -15 -15z"/>
<path d="M4810 455 c0 -8 7 -15 15 -15 8 0 15 7 15 15 0 8 -7 15 -15 15 -8 0
-15 -7 -15 -15z"/>
<path d="M4870 455 c0 -8 7 -15 15 -15 8 0 15 7 15 15 0 8 -7 15 -15 15 -8 0
-15 -7 -15 -15z"/>
<path d="M4930 455 c0 -8 7 -15 15 -15 8 0 15 7 15 15 0 8 -7 15 -15 15 -8 0
-15 -7 -15 -15z"/>
<path d="M4990 455 c0 -8 7 -15 15 -15 8 0 15 7 15 15 0 8 -7 15 -15 15 -8 0
-15 -7 -15 -15z"/>
<path d="M5050 455 c0 -8 7 -15 15 -15 8 0 15 7 15 15 0 8 -7 15 -15 15 -8 0
-15 -7 -15 -15z"/>
<path d="M5110 455 c0 -8 7 -15 15 -15 8 0 15 7 15 15 0 8 -7 15 -15 15 -8 0
-15 -7 -15 -15z"/>
<path d="M5170 455 c0 -8 7 -15 15 -15 8 0 15 7 15 15 0 8 -7 15 -15 15 -8 0
-15 -7 -15 -15z"/>
<path d="M5230 455 c0 -8 7 -15 15 -15 8 0 15 7 15 15 0 8 -7 15 -15 15 -8 0
-15 -7 -15 -15z"/>
<path d="M5290 455 c0 -8 7 -15 15 -15 8 0 15 7 15 15 0 8 -7 15 -15 15 -8 0
-15 -7 -15 -15z"/>
<path d="M5350 455 c0 -8 7 -15 15 -15 8 0 15 7 15 15 0 8 -7 15 -15 15 -8 0
-15 -7 -15 -15z"/>
<path d="M5410 455 c0 -8 7 -15 15 -15 8 0 15 7 15 15 0 8 -7 15 -15 15 -8 0
-15 -7 -15 -15z"/>
<path d="M5470 455 c0 -8 7 -15 15 -15 8 0 15 7 15 15 0 8 -7 15 -15 15 -8 0
-15 -7 -15 -15z"/>
<path d="M5530 455 c0 -8 7 -15 15 -15 8 0 15 7 15 15 0 8 -7 15 -15 15 -8 0
-15 -7 -15 -15z"/>
<path d="M5590 455 c0 -8 7 -15 15 -15 8 0 15 7 15 15 0 8 -7 15 -15 15 -8 0
-15 -7 -15 -15z"/>
<path d="M5650 455 c0 -8 7 -15 15 -15 8 0 15 7 15 15 0 8 -7 15 -15 15 -8 0
-15 -7 -15 -15z"/>
<path d="M5710 455 c0 -8 7 -15 15 -15 8 0 15 7 15 15 0 8 -7 15 -15 15 -8 0
-15 -7 -15 -15z"/>
<path d="M5770 455 c0 -8 7 -15 15 -15 8 0 15 7 15 15 0 8 -7 15 -15 15 -8 0
-15 -7 -15 -15z"/>
<path d="M5830 455 c0 -8 7 -15 15 -15 8 0 15 7 15 15 0 8 -7 15 -15 15 -8 0
-15 -7 -15 -15z"/>
<path d="M5890 455 c0 -8 7 -15 15 -15 8 0 15 7 15 15 0 8 -7 15 -15 15 -8 0
-15 -7 -15 -15z"/>
</g>
</svg>
